<svg class="main-svg" xmlns="http://www.w3.org/2000/svg" xmlns:xlink="http://www.w3.org/1999/xlink" width="700" height="500" style="" viewBox="0 0 700 500"><rect x="0" y="0" width="700" height="500" style="fill: rgb(255, 255, 255); fill-opacity: 1;"/><defs id="defs-063e80"><g class="clips"><clipPath id="clip063e80xyplot" class="plotclip"><rect width="490" height="320"/></clipPath><clipPath class="axesclip" id="clip063e80x"><rect x="80" y="0" width="490" height="500"/></clipPath><clipPath class="axesclip" id="clip063e80y"><rect x="0" y="100" width="700" height="320"/></clipPath><clipPath class="axesclip" id="clip063e80xy"><rect x="80" y="100" width="490" height="320"/></clipPath></g><g class="gradients"/><g class="patterns"/></defs><g class="bglayer"><rect class="bg" x="80" y="100" width="490" height="320" style="fill: rgb(229, 236, 246); fill-opacity: 1; stroke-width: 0;"/></g><g class="layer-below"><g class="imagelayer"/><g class="shapelayer"/></g><g class="cartesianlayer"><g class="subplot xy"><g class="layer-subplot"><g class="shapelayer"/><g class="imagelayer"/></g><g class="minor-gridlayer"><g class="x"/><g class="y"/></g><g class="gridlayer"><g class="x"><path class="xgrid crisp" transform="translate(215.73,0)" d="M0,100v320" style="stroke: rgb(255, 255, 255); stroke-opacity: 1; stroke-width: 1px;"/><path class="xgrid crisp" transform="translate(351.47,0)" d="M0,100v320" style="stroke: rgb(255, 255, 255); stroke-opacity: 1; stroke-width: 1px;"/><path class="xgrid crisp" transform="translate(487.2,0)" d="M0,100v320" style="stroke: rgb(255, 255, 255); stroke-opacity: 1; stroke-width: 1px;"/></g><g class="y"><path class="ygrid crisp" transform="translate(0,382.28)" d="M80,0h490" style="stroke: rgb(255, 255, 255); stroke-opacity: 1; stroke-width: 1px;"/><path class="ygrid crisp" transform="translate(0,322.28)" d="M80,0h490" style="stroke: rgb(255, 255, 255); stroke-opacity: 1; stroke-width: 1px;"/><path class="ygrid crisp" transform="translate(0,202.26999999999998)" d="M80,0h490" style="stroke: rgb(255, 255, 255); stroke-opacity: 1; stroke-width: 1px;"/><path class="ygrid crisp" transform="translate(0,142.26)" d="M80,0h490" style="stroke: rgb(255, 255, 255); stroke-opacity: 1; stroke-width: 1px;"/></g></g><g class="zerolinelayer"><path class="xzl zl crisp" transform="translate(80,0)" d="M0,100v320" style="stroke: rgb(255, 255, 255); stroke-opacity: 1; stroke-width: 2px;"/><path class="yzl zl crisp" transform="translate(0,262.27)" d="M80,0h490" style="stroke: rgb(255, 255, 255); stroke-opacity: 1; stroke-width: 2px;"/></g><g class="layer-between"><g class="shapelayer"/><g class="imagelayer"/></g><path class="xlines-below"/><path class="ylines-below"/><g class="overlines-below"/><g class="xaxislayer-below"/><g class="yaxislayer-below"/><g class="overaxes-below"/><g class="overplot"><g class="xy" transform="translate(80,100)" clip-path="url(#clip063e80xyplot)"><g class="scatterlayer mlayer"><g class="trace scatter trace66695e" style="stroke-miterlimit: 2; opacity: 1;"><g class="fills"/><g class="errorbars"/><g class="lines"><path class="js-line" d="M0,162.27L490,162.27" style="vector-effect: none; fill: none; stroke: rgb(99, 110, 250); stroke-opacity: 1; stroke-width: 2px; opacity: 1;"/></g><g class="points"/><g class="text"/></g><g class="trace scatter trace20b252" style="stroke-miterlimit: 2; opacity: 1;"><g class="fills"/><g class="errorbars"/><g class="lines"><path class="js-line" d="M0,37.37L1.36,38.22L2.71,41.94L6.79,58.85L8.14,57.72L9.5,60.71L10.86,66.27L12.22,61.75L13.57,68.6L14.93,69.33L16.29,72.35L17.65,82.99L19,75.39L21.72,87.6L23.07,88.49L24.43,84.17L25.79,84.18L27.15,95.58L28.5,99.14L31.22,93.87L32.58,99.89L33.93,105.43L35.29,103.1L38.01,111.72L39.36,113.31L40.72,116.14L42.08,116.83L43.43,111.65L44.79,115.98L46.15,115.97L47.51,127.64L48.86,124.51L50.22,118.12L51.58,120.2L52.94,127.8L54.29,127.38L55.65,133.1L57.01,129.17L58.37,136.54L59.72,131.65L61.08,133.37L62.44,131.32L63.8,139.74L65.15,137.24L66.51,140.34L67.87,142.73L69.22,147.98L70.58,140.21L71.94,143.72L73.3,141.14L74.65,147.12L76.01,141.59L77.37,154.7L78.73,147.47L80.08,152.84L82.8,143.58L84.16,151.9L88.23,158.28L89.58,155.15L92.3,160.5L93.66,160.13L95.01,153.6L96.37,152.86L97.73,159L99.09,161.17L100.44,165.28L101.8,162.79L103.16,166.43L104.52,167.09L105.87,172.13L107.23,172.14L108.59,161.33L109.94,159.82L112.66,171.92L114.02,172.4L115.37,171.61L116.73,169.3L119.45,168.25L120.8,166.37L123.52,174.55L124.88,170.93L126.23,171.2L127.59,176.81L128.95,173.7L130.3,179.76L131.66,178.92L133.02,172.76L134.38,182.81L135.73,178.52L137.09,184.43L138.45,177.11L141.16,180.05L142.52,174L143.88,186.6L145.24,187.01L146.59,180.97L147.95,182.64L149.31,188.34L150.66,183.41L152.02,178.6L153.38,184.36L154.74,190.54L156.09,180.26L157.45,189.29L158.81,185.41L160.17,183.01L161.52,191.94L162.88,186.16L164.24,185.39L165.6,184.62L166.95,182.34L168.31,190.2L169.67,184.56L171.02,185.46L172.38,188L176.45,190.86L177.81,186.62L180.53,189.49L181.88,183.17L183.24,193.23L184.6,184.34L185.96,185.4L187.31,190.97L188.67,190.4L190.03,186.8L191.39,193.91L192.74,188.58L194.1,184.81L195.46,192.62L196.81,190.9L198.17,193.93L199.53,197.06L200.89,186.73L203.6,193.61L204.96,195.61L206.32,187.79L207.67,193.22L209.03,186.25L210.39,192.64L211.75,185.85L213.1,193.09L214.46,192.38L215.82,194.5L217.17,187.21L218.53,190.81L219.89,192.34L221.25,192.44L223.96,198.9L225.32,196.87L226.68,196.31L228.03,197.97L229.39,199.75L230.75,200.01L232.11,194.66L233.46,195.72L234.82,193.06L236.18,196.45L237.53,191.28L238.89,199.04L240.25,196L241.61,196.2L242.96,189.56L244.32,199.11L245.68,196.07L247.04,197.48L248.39,200.31L249.75,200.72L251.11,189.93L252.47,197.79L253.82,200.87L255.18,198.01L256.54,208.5L257.89,205.38L259.25,201.54L260.61,201.91L261.97,203.23L263.32,201.29L264.68,198.61L266.04,199.7L267.4,203.07L268.75,197.66L270.11,204.16L271.47,200.79L272.83,203.43L274.18,209.3L275.54,205.81L276.9,209.07L279.61,204.44L280.97,205.44L282.33,196.42L283.68,192.67L285.04,204.39L286.4,201.24L287.76,204.16L289.11,209.41L290.47,211.71L291.83,202.65L293.19,205.2L294.54,200.39L297.26,202.25L298.61,201.54L299.97,209.67L301.33,201.39L302.69,212.69L304.04,202.86L305.4,197.74L306.76,198.29L308.12,214.54L309.47,204.57L310.83,208.42L312.19,207.79L313.55,189.93L314.9,205.7L316.26,207.07L317.62,201.99L318.98,205.9L320.33,215.25L321.69,193.77L323.05,199.52L324.4,211.84L325.76,199.51L327.12,192.53L328.48,198.6L329.83,213.07L331.19,200.71L332.55,199.73L333.91,215.68L335.26,214.27L336.62,204.03L337.98,185.04L339.34,206.08L340.69,223.37L342.05,220.48L343.41,196.48L344.76,206.86L347.48,200.56L348.84,202.55L350.19,218.27L351.55,192.66L354.27,220.17L355.62,191.18L356.98,176.05L358.34,219.8L359.7,198.94L361.05,194.51L362.41,190.88L363.77,237.29L365.12,218.79L366.48,184.09L367.84,204.06L369.2,189.33L370.55,222.82L371.91,209.73L373.27,211.47L374.63,209.99L375.98,187.85L377.34,220.59L378.7,225.54L380.06,209.94L381.41,224.34L382.77,222.54L384.13,230.19L385.48,225.79L386.84,199.59L388.2,216.39L389.56,219.51L390.91,211.83L392.27,204.15L393.63,225.03L394.99,228.87L396.34,211.11L397.7,227.49L399.06,183.08L400.42,154.88L401.77,189.38L403.13,205.59L404.49,207.09L405.84,159.98L407.2,227.19L408.56,204.39L409.92,198.09L411.27,207.39L412.63,192.08L413.99,223.89L415.35,212.19L418.06,223.89L419.42,200.79L420.78,219.09L422.13,224.79L423.49,185.48L424.85,198.79L426.2,210.79L427.56,203.19L428.92,229.99L430.28,222.39L431.63,225.19L432.99,191.98L434.35,186.38L435.71,211.59L437.06,177.98L438.42,190.38L439.78,224.39L441.14,191.58L442.49,185.58L443.85,217.59L445.21,217.99L446.57,213.59L447.92,190.78L449.28,234.79L450.64,208.39L451.99,223.19L453.35,207.59L454.71,207.99L456.07,189.38L457.42,157.58L458.78,206.79L460.14,218.19L461.5,202.59L462.85,170.78L464.21,129.98L465.57,186.38L466.93,168.38L468.28,233.19L469.64,182.78L471,236.79L473.71,203.19L475.07,217.59L476.43,183.98L477.78,219.99L479.14,180.38L480.5,215.19L481.86,260.79L483.21,164.78L485.93,243.99L487.29,156.38L488.64,303.99L490,248.79" style="vector-effect: none; fill: none; stroke: rgb(239, 85, 59); stroke-opacity: 1; stroke-width: 2px; opacity: 1;"/></g><g class="points"/><g class="text"/></g><g class="trace scatter tracef5132e" style="stroke-miterlimit: 2; opacity: 1;"><g class="fills"/><g class="errorbars"/><g class="lines"><path class="js-line" d="M0,45.06L1.36,48.14L2.71,47.86L4.07,51.22L5.43,43.29L6.79,59.01L8.14,64.82L9.5,66.58L10.86,62.99L12.22,65.51L13.57,72.1L14.93,77.19L16.29,72.57L17.65,76.14L19,82.29L20.36,86.1L21.72,85.27L23.07,86.33L24.43,93.2L25.79,95.65L27.15,94.06L28.5,101.13L29.86,93.93L31.22,104L32.58,99.32L33.93,106.86L35.29,105.2L36.65,121.84L38.01,111.28L39.36,116.86L40.72,109.02L42.08,116.19L43.43,115.17L44.79,122.26L46.15,120.05L47.51,112.61L48.86,126.36L50.22,122.16L51.58,126.67L52.94,123.7L54.29,127.79L55.65,132.06L57.01,131.87L58.37,132.03L59.72,137.63L61.08,139.41L62.44,134.25L63.8,135.84L65.15,140.32L66.51,141.38L67.87,139.38L69.22,139.62L70.58,143.59L71.94,142.93L73.3,139.34L74.65,144.94L76.01,139.89L77.37,152.12L78.73,151.05L80.08,156L81.44,147.45L82.8,144.98L84.16,148.75L85.51,160.12L86.87,154.14L88.23,157.09L89.58,153.04L90.94,159.47L92.3,159.34L95.01,160.67L96.37,159.21L97.73,167.14L99.09,159.09L100.44,164.97L101.8,164.49L103.16,171.6L104.52,162.38L105.87,168.65L107.23,169.82L108.59,172.74L109.94,165.04L111.3,176.84L112.66,167.34L114.02,161.15L115.37,172.44L116.73,168.38L118.09,170.8L119.45,180.67L120.8,167.03L122.16,175.31L123.52,177.75L124.88,169.52L126.23,172.45L127.59,176.81L128.95,176.27L130.3,180.31L131.66,177.52L133.02,182.85L134.38,171.52L135.73,177.86L137.09,177.77L138.45,185.89L139.81,177.28L141.16,180.9L142.52,178.16L143.88,177.84L145.24,179.31L146.59,179.87L147.95,176.42L149.31,180.54L150.66,181.74L152.02,185.74L153.38,185.07L156.09,177.28L157.45,178.18L158.81,186.6L160.17,187L161.52,181.35L162.88,187.04L164.24,183.86L165.6,185.36L166.95,183.01L168.31,188.11L169.67,185.1L171.02,184.53L172.38,188.13L173.74,185.32L176.45,188.29L177.81,185.01L179.17,185.84L180.53,191.14L181.88,179.67L183.24,182.94L184.6,179.26L185.96,192.67L187.31,196.02L188.67,188.46L190.03,190.93L191.39,189.99L192.74,190.2L194.1,197.84L195.46,194.74L196.81,198.03L198.17,190.12L199.53,189.82L200.89,191.18L202.24,187.2L203.6,195.66L204.96,182.91L206.32,187.99L207.67,188.89L209.03,183.26L210.39,195.2L211.75,187.23L213.1,189.17L214.46,184.92L215.82,189.22L217.17,188.48L218.53,198.51L219.89,195.22L221.25,196.15L223.96,187.94L225.32,196.64L226.68,196.35L228.03,181.01L229.39,194.54L230.75,188.94L232.11,193.39L233.46,210.14L234.82,195.61L236.18,199.51L237.53,194.59L238.89,205.05L240.25,201.27L241.61,200.97L242.96,194.82L244.32,201.94L245.68,189.47L247.04,190.1L248.39,197.83L249.75,195.34L251.11,201.73L252.47,196.95L253.82,200.74L255.18,197.4L256.54,193.87L257.89,196.06L259.25,210.6L260.61,202.59L261.97,191.12L263.32,203.87L264.68,199.89L266.04,206.82L267.4,204.77L268.75,197.75L270.11,204.36L271.47,194.48L272.83,193.15L274.18,193.69L275.54,200.84L276.9,201.81L278.25,198.48L279.61,202.51L280.97,194.92L282.33,212.05L283.68,201.37L285.04,197.59L286.4,194.74L287.76,209.96L289.11,216.06L290.47,186.58L291.83,199.95L293.19,205.04L294.54,207.25L295.9,192.61L298.61,206.82L299.97,208.14L301.33,213.07L302.69,206.45L304.04,200.89L305.4,206.24L306.76,197.3L308.12,211.44L309.47,198.67L310.83,201.66L312.19,216.61L313.55,207.77L314.9,202.09L316.26,191.04L317.62,204.4L318.98,200.99L320.33,197.58L321.69,196.2L323.05,202.8L324.4,200.62L325.76,211.6L327.12,195.65L328.48,180.77L329.83,221.59L331.19,209.52L332.55,213.03L333.91,195.4L335.26,195.19L336.62,193.12L337.98,189.63L339.34,197.85L340.69,196.25L342.05,207.79L343.41,193.81L346.12,203.03L347.48,205.35L348.84,196.81L350.19,196.09L351.55,206.34L352.91,209.81L354.27,193.67L355.62,194.16L356.98,215.48L358.34,211.13L359.7,204.04L361.05,232.17L362.41,193.86L363.77,211.27L365.12,204.04L366.48,223.56L367.84,219.87L369.2,212.93L370.55,222.92L371.91,189.66L373.27,204.45L374.63,180.01L377.34,186.73L378.7,205.22L380.06,205.65L381.41,213.88L382.77,218.6L384.13,218.35L385.48,228.63L386.84,200.07L388.2,204.8L389.56,215.21L390.91,238.72L392.27,228.35L393.63,170.27L394.99,200.96L396.34,217.95L397.7,198L400.42,217.67L401.77,203.68L403.13,213.22L404.49,200.86L405.84,175.71L407.2,213.81L409.92,176.71L411.27,203.04L412.63,196.17L413.99,175.96L415.35,231.7L416.7,194.6L418.06,198.34L419.42,164.09L420.78,191.08L422.13,187.31L426.2,242.17L427.56,214.08L430.28,174.11L431.63,202.1L432.99,169.64L434.35,203.9L435.71,225.63L437.06,234.53L438.42,171.47L439.78,231.5L441.14,210.85L442.49,216.46L443.85,218.81L445.21,224.09L446.57,223.05L447.92,217.99L449.28,210.26L450.64,185.21L451.99,192.45L453.35,211.79L454.71,214.99L456.07,236.64L457.42,253.08L458.78,158.44L460.14,254.84L461.5,190.05L462.85,239.43L464.21,256.95L465.57,228.95L466.93,137.93L468.28,201.84L469.64,226.8L471,211.34L472.35,155.06L475.07,179.92L476.43,120.71L479.14,243.05L480.5,247.94L481.86,249.8L483.21,197.83L484.57,239.82L485.93,200.96L487.29,212.32L488.64,125.89L490,195.78" style="vector-effect: none; fill: none; stroke: rgb(0, 204, 150); stroke-opacity: 1; stroke-width: 2px; opacity: 1;"/></g><g class="points"/><g class="text"/></g><g class="trace scatter trace0a218b" style="stroke-miterlimit: 2; opacity: 1;"><g class="fills"/><g class="errorbars"/><g class="lines"><path class="js-line" d="M0,16L2.71,34.05L4.07,28.26L5.43,38.22L6.79,38.35L9.5,52.65L10.86,53.2L14.93,63.91L16.29,66.46L17.65,64.63L19,70.51L20.36,69.5L21.72,77.98L23.07,76.36L24.43,85.26L25.79,83.08L27.15,84.65L28.5,88.77L29.86,87.56L31.22,96.45L32.58,90.81L33.93,100.07L35.29,96.19L39.36,106.09L40.72,99.19L42.08,110.87L43.43,114.3L44.79,111.39L46.15,118.68L47.51,113.44L48.86,116.25L50.22,121.46L51.58,122.23L54.29,120.32L55.65,121.16L57.01,127.53L58.37,128.34L59.72,127.21L61.08,136.14L62.44,127.53L63.8,134.29L65.15,130.87L66.51,133.61L69.22,140.91L70.58,138.09L71.94,138.96L73.3,146.6L74.65,146.38L76.01,143.59L77.37,144.9L78.73,150.69L81.44,151.74L82.8,150.11L84.16,155.35L85.51,152.47L86.87,156.72L88.23,156.66L89.58,154.46L90.94,155.55L92.3,156.63L93.66,155.87L95.01,161.77L96.37,159.56L97.73,162.64L99.09,159.21L100.44,164.53L101.8,163.78L103.16,157.33L104.52,166.88L105.87,165.85L107.23,170.4L108.59,163.66L109.94,166.74L111.3,172.35L112.66,162.29L115.37,173.3L116.73,172.82L118.09,171.01L119.45,174.75L120.8,174.38L122.16,176.89L123.52,178.61L124.88,174.05L126.23,173.51L127.59,171.94L128.95,171.72L130.3,180.42L131.66,180.41L133.02,176.81L134.38,173.33L135.73,176.93L137.09,180.11L138.45,176.43L139.81,176.4L141.16,180.03L142.52,177.13L143.88,183.83L145.24,181.16L146.59,181.55L147.95,178.89L149.31,183.22L150.66,183.49L152.02,182.47L154.74,184.27L156.09,189.74L157.45,182.99L158.81,186.31L161.52,185.38L162.88,193.07L164.24,186.22L165.6,192.52L166.95,185.65L168.31,192.32L169.67,183.55L171.02,194.03L172.38,188.05L173.74,191.38L175.1,192.44L176.45,198.74L177.81,189.7L179.17,193.77L180.53,192.39L181.88,188.29L183.24,193.91L184.6,193.49L187.31,195.78L188.67,192.86L190.03,196.04L191.39,190.8L194.1,198.91L195.46,192.34L196.81,196.95L198.17,193.93L199.53,194.35L200.89,196.42L202.24,191.83L203.6,197.21L204.96,196.58L206.32,194.01L210.39,200.07L211.75,195.75L213.1,195.11L214.46,197.56L217.17,203.39L218.53,196.42L221.25,203.68L222.6,196.86L223.96,199.85L225.32,200.7L226.68,191.28L228.03,197.11L229.39,197.09L230.75,198.16L232.11,194.94L233.46,197.16L234.82,198.4L236.18,196.49L237.53,201.54L238.89,201.55L240.25,205.14L241.61,196.78L242.96,201.62L244.32,196.92L245.68,203.62L247.04,202.81L248.39,203.54L249.75,207.09L251.11,199.48L252.47,203.33L253.82,197.06L255.18,206.24L256.54,199.84L257.89,205.48L259.25,200.84L260.61,200.96L261.97,208.09L263.32,201.1L264.68,210.3L266.04,209.2L267.4,209.46L268.75,206.58L271.47,210.92L272.83,207.56L274.18,207.21L275.54,215.87L276.9,211.24L278.25,213.41L279.61,214.74L280.97,203.33L283.68,211.22L285.04,206.26L286.4,200.63L287.76,202.46L289.11,205.39L290.47,214.5L291.83,209.75L293.19,214.14L294.54,215.09L295.9,204.21L297.26,219.08L298.61,213.01L299.97,219.59L301.33,211.51L302.69,212.22L304.04,201.3L306.76,209.98L308.12,210.81L309.47,206L310.83,215.62L312.19,213.98L313.55,211.08L314.9,211.38L316.26,216.15L317.62,201.18L318.98,199.82L320.33,209.22L321.69,210.7L323.05,203.9L324.4,211.6L325.76,217.24L327.12,217.23L328.48,205.65L329.83,208.19L331.19,212.4L332.55,221.04L335.26,207.36L336.62,213.08L337.98,202.52L339.34,206.25L342.05,210.18L343.41,220.83L344.76,203.2L346.12,222.23L348.84,207.66L350.19,206.48L351.55,208.14L352.91,216.54L354.27,210.17L355.62,216.04L356.98,214.16L358.34,221.05L359.7,212.41L361.05,214.42L362.41,212.84L363.77,208.24L365.12,213.07L366.48,207.97L367.84,228.62L369.2,216.3L370.55,211.56L371.91,219.26L373.27,205.25L374.63,218.75L375.98,217.15L377.34,209.33L378.7,225.99L380.06,225.55L381.41,200.39L382.77,227.12L384.13,200.68L385.48,219.89L386.84,231.82L388.2,228.03L389.56,225.33L390.91,219.97L392.27,222.06L393.63,225.94L394.99,239.98L396.34,214.26L397.7,189.33L399.06,196.27L400.42,215.73L401.77,218.5L403.13,201.23L404.49,198.57L405.84,193.62L407.2,205.3L408.56,214.03L409.92,192.92L411.27,208.08L412.63,203.55L413.99,208.57L415.35,200.78L416.7,202.22L418.06,223.27L419.42,221.83L420.78,201.68L422.13,183.78L423.49,215.1L426.2,199.48L427.56,202.72L430.28,194.79L431.63,213.35L432.99,197.21L434.35,221.48L435.71,199.9L437.06,246.01L438.42,186.9L439.78,234.37L442.49,186.61L443.85,199.17L445.21,205.86L446.57,228.75L447.92,221.79L449.28,194.52L450.64,227.55L451.99,225.48L453.35,229.06L454.71,192.92L456.07,195.97L457.42,191.67L458.78,177.46L460.14,243.77L461.5,186.97L462.85,216.3L465.57,208.03L466.93,229.1L469.64,177.63L471,191.3L472.35,203.43L473.71,230.84L475.07,224.23L476.43,179.03L477.78,183.97L479.14,227.7L480.5,205.7L481.86,228.37L483.21,227.7L484.57,201.37L485.93,165.56L487.29,187.03L488.64,211.57L490,217.5" style="vector-effect: none; fill: none; stroke: rgb(171, 99, 250); stroke-opacity: 1; stroke-width: 2px; opacity: 1;"/></g><g class="points"/><g class="text"/></g><g class="trace scatter trace939b01" style="stroke-miterlimit: 2; opacity: 1;"><g class="fills"/><g class="errorbars"/><g class="lines"><path class="js-line" d="M0,162.27L490,162.27" style="vector-effect: none; fill: none; stroke: rgb(255, 161, 90); stroke-opacity: 1; stroke-width: 2px; opacity: 1;"/></g><g class="points"/><g class="text"/></g><g class="trace scatter tracee5995c" style="stroke-miterlimit: 2; opacity: 1;"><g class="fills"/><g class="errorbars"/><g class="lines"><path class="js-line" d="M0,153.77L57.01,153.77L58.37,158.09L59.72,153.77L61.08,153.77L62.44,153.77L63.8,158.09L65.15,153.77L66.51,153.77L74.65,153.77L76.01,158.09L77.37,158.09L78.73,153.77L82.8,153.77L84.16,158.09L85.51,153.77L86.87,153.77L89.58,153.77L90.94,158.09L92.3,158.09L93.66,153.77L96.37,162.41L97.73,158.09L99.09,158.09L100.44,166.73L101.8,153.77L103.16,162.41L104.52,158.09L105.87,158.09L107.23,153.77L108.59,158.09L109.94,166.73L111.3,153.77L112.66,166.73L114.02,162.41L116.73,153.77L118.09,153.77L119.45,171.05L120.8,166.73L122.16,158.09L123.52,158.09L124.88,158.09L126.23,162.41L127.59,158.09L128.95,162.41L130.3,153.77L131.66,162.41L133.02,153.77L134.38,153.77L135.73,158.09L137.09,153.77L138.45,162.41L139.81,158.09L141.16,171.05L142.52,166.73L143.88,158.09L145.24,162.41L146.59,153.77L147.95,158.09L149.31,153.77L150.66,158.09L152.02,162.41L153.38,162.41L154.74,153.77L156.09,166.73L157.45,162.41L158.81,162.41L160.17,162.41L161.52,158.09L162.88,162.41L164.24,158.09L166.95,166.73L168.31,158.09L169.67,153.77L171.02,171.05L172.38,166.73L173.74,166.86L175.1,171.23L176.45,162.5L177.81,166.86L179.17,175.59L180.53,162.5L181.88,158.13L184.6,158.18L185.96,176.27L187.31,162.77L188.67,167.27L191.39,158.27L192.74,158.27L194.1,162.77L195.46,158.27L196.81,167.27L198.17,167.27L199.53,185.94L200.89,162.96L202.24,167.56L203.6,153.77L204.96,163.06L206.32,163.06L207.67,172.55L209.03,168.17L210.39,173.19L211.75,163.7L213.1,158.74L214.46,174.34L215.82,184.63L217.17,158.91L218.53,174.34L219.89,158.91L221.25,164.31L222.6,174.84L223.96,169.77L225.32,159.17L228.03,159.24L229.39,175.64L230.75,170.6L232.11,170.6L233.46,159.45L234.82,187.88L236.18,165.29L237.53,171.05L238.89,171.05L240.25,153.77L241.61,177.12L242.96,171.52L244.32,165.94L245.68,184.63L247.04,172.29L248.39,172.29L249.75,172.29L251.11,166.67L252.47,166.67L253.82,192.46L255.18,153.77L256.54,160.63L259.25,174.67L260.61,168.17L261.97,168.42L263.32,176.51L264.68,194.53L266.04,195.31L267.4,170.39L268.75,196.13L270.11,189.77L271.47,172.55L272.83,182.57L274.18,205.2L275.54,194.92L276.9,174.34L278.25,194.92L279.61,174.34L280.97,164.57L282.33,164.85L283.68,165.14L285.04,188.8L286.4,177.12L287.76,177.12L289.11,207.77L290.47,153.77L294.54,201.77L295.9,169.77L297.26,169.77L298.61,185.77L299.97,153.77L301.33,187L302.69,170.39L304.04,170.39L305.4,187L306.76,170.39L308.12,203.62L309.47,187L310.83,188.33L312.19,171.77L313.55,174.34L314.9,194.92L316.26,194.92L317.62,199.25L318.98,221.98L320.33,199.25L321.69,153.77L323.05,176.51L324.4,176.51L325.76,153.77L327.12,153.77L328.48,204.6L329.83,153.77L331.19,204.6L332.55,153.77L333.91,179.18L335.26,153.77L336.62,204.6L337.98,153.77L339.34,230.01L342.05,153.77L343.41,179.18L344.76,153.77L346.12,204.6L347.48,207.77L348.84,182.57L350.19,153.77L351.55,187L356.98,187L358.34,153.77L362.41,153.77L363.77,225.77L365.12,153.77L366.48,153.77L371.91,153.77L373.27,283.38L374.63,249.78L375.98,249.78L377.34,261.78L378.7,207.77L380.06,207.77L381.41,261.78L382.77,261.78L384.13,153.77L385.48,297.78L386.84,153.77L388.2,225.77L389.56,153.77L393.63,153.77L394.99,240.18L396.34,153.77L397.7,153.77L438.42,153.77L439.78,297.78L441.14,153.77L442.49,153.77L490,153.77" style="vector-effect: none; fill: none; stroke: rgb(25, 211, 243); stroke-opacity: 1; stroke-width: 2px; opacity: 1;"/></g><g class="points"/><g class="text"/></g><g class="trace scatter trace45d85e" style="stroke-miterlimit: 2; opacity: 1;"><g class="fills"/><g class="errorbars"/><g class="lines"><path class="js-line" d="M0,298.28L5.43,281.23L6.79,279.9L9.5,269.87L10.86,269.71L12.22,262.66L13.57,264.3L14.93,259.08L16.29,259.83L17.65,257.27L19,249.24L20.36,250.37L21.72,249.31L23.07,240.61L24.43,245.57L25.79,238.16L27.15,236.83L29.86,229.54L31.22,229.22L35.29,224.88L36.65,219.21L38.01,221.28L39.36,217.21L40.72,217.26L42.08,212.98L43.43,211.79L44.79,212.49L46.15,207.39L47.51,208.59L48.86,205.92L50.22,205.59L51.58,205.27L52.94,201.25L54.29,200.39L55.65,197.4L57.01,193.01L58.37,197.9L59.72,198.58L61.08,196.9L62.44,188.02L63.8,186.78L65.15,188.12L66.51,185.98L67.87,190.81L69.22,185.14L70.58,182.63L71.94,182.99L73.3,177.81L74.65,183.74L78.73,174.72L80.08,175.27L81.44,173.24L82.8,173.07L84.16,168.88L85.51,174.99L88.23,166.46L89.58,168.27L90.94,171.53L92.3,169.7L95.01,165.28L96.37,166.12L97.73,165.68L99.09,162.75L101.8,160.84L103.16,162.26L104.52,161.03L105.87,157.53L107.23,159.91L108.59,152.81L109.94,158.29L111.3,154.25L114.02,153.17L115.37,151.97L116.73,151.21L118.09,155.38L119.45,151.37L120.8,151.43L122.16,152.66L123.52,155.61L124.88,146.75L126.23,153.49L127.59,148.8L128.95,151.91L131.66,146.08L133.02,148.11L134.38,147.68L135.73,149.97L137.09,144.56L138.45,144.67L139.81,142.46L141.16,145.4L142.52,142.17L143.88,142.36L145.24,143.51L146.59,142.92L147.95,145.5L149.31,141.82L150.66,143.46L152.02,143.38L153.38,143.42L154.74,139.98L156.09,139.26L157.45,135.02L158.81,141.42L160.17,136.62L161.52,145.51L162.88,135.8L164.24,138.58L165.6,136.4L166.95,138.25L168.31,135.42L169.67,136.23L171.02,133.06L172.38,135.3L173.74,128.9L175.1,137.37L176.45,136.18L177.81,136.22L179.17,132L180.53,135.52L181.88,131.36L184.6,133.9L185.96,133.34L187.31,133.7L188.67,135.65L191.39,124.89L192.74,130.85L194.1,132.34L195.46,132.14L196.81,123.75L198.17,128.76L199.53,126.58L200.89,134.87L203.6,123.54L204.96,129.62L206.32,130.71L207.67,128.47L209.03,126.19L210.39,128.05L211.75,131.48L213.1,131.44L214.46,130.57L215.82,120.22L217.17,132.79L218.53,129.33L219.89,122.44L221.25,131.33L222.6,132.25L223.96,127.83L225.32,124.05L226.68,124.23L228.03,130.61L229.39,127.21L230.75,123.78L232.11,123.3L233.46,124.43L234.82,120.37L236.18,121.52L237.53,128.55L240.25,117.2L241.61,125.11L242.96,119.86L244.32,125.01L247.04,119.08L248.39,130.75L249.75,128.02L251.11,127.42L252.47,125.96L253.82,122.92L255.18,117.42L256.54,119.76L257.89,125.7L259.25,126.53L261.97,116.6L263.32,121.75L264.68,118.94L266.04,126.42L268.75,115.88L270.11,122.75L271.47,116.34L272.83,124.89L274.18,127.2L275.54,115.8L276.9,124.97L278.25,118.58L279.61,118.65L280.97,114.61L282.33,123.45L283.68,113.16L285.04,122.3L286.4,118.93L287.76,105.37L289.11,113.34L290.47,110.59L291.83,102.69L293.19,119.21L294.54,118.6L297.26,115.54L298.61,118.07L299.97,120.03L301.33,108.09L302.69,114.03L304.04,114.87L305.4,110.17L306.76,120.97L308.12,109.57L309.47,118.44L312.19,107.37L313.55,123.67L314.9,107.43L316.26,119.86L317.62,115.37L318.98,103.74L320.33,125.47L321.69,120.19L323.05,115.44L324.4,114.34L325.76,112.23L327.12,108L328.48,129.73L329.83,119.01L331.19,126.7L332.55,114.38L333.91,118.33L335.26,118.53L336.62,120.44L337.98,111.43L339.34,112.94L340.69,118.81L342.05,102.37L343.41,111.23L346.12,123.23L347.48,113.01L348.84,107.38L350.19,108.22L351.55,103.29L352.91,122.32L354.27,115.23L355.62,115.34L356.98,134.63L358.34,118.83L359.7,118.78L361.05,129.31L363.77,93.08L365.12,110.1L366.48,119.22L367.84,110.1L370.55,122.24L371.91,108.19L373.27,99.4L374.63,100.35L375.98,113L377.34,112.29L378.7,103.39L380.06,108.9L381.41,98.56L382.77,94.49L384.13,114.88L385.48,99.52L386.84,86.52L388.2,109.12L389.56,110.32L390.91,124.15L392.27,119.4L393.63,129.84L394.99,98.52L396.34,111.4L397.7,92.79L399.06,114.83L401.77,122.62L403.13,120.93L404.49,113.3L405.84,133.47L407.2,129.74L408.56,132.62L409.92,117.37L411.27,143.47L412.63,113.13L413.99,119.06L415.35,108.22L416.7,130.42L418.06,97.2L419.42,131.27L420.78,137.88L422.13,139.07L423.49,101.44L424.85,86.86L426.2,112.4L427.56,113.75L428.92,104.04L430.28,112.62L431.63,151.72L432.99,159.4L434.35,103.36L435.71,110.82L437.06,97.71L438.42,129.8L441.14,95L442.49,126.86L443.85,106.97L445.21,128.9L446.57,113.3L447.92,123.92L449.28,103.81L450.64,98.61L451.99,113.53L453.35,79.63L456.07,112.62L457.42,129.23L458.78,111.27L460.14,126.18L461.5,146.52L462.85,87.54L464.21,156.02L465.57,96.35L466.93,91.61L468.28,97.71L471,145.17L472.35,127.54L473.71,132.29L475.07,145.17L476.43,107.88L477.78,124.83L479.14,148.56L480.5,86.86L481.86,126.18L483.21,115.34L484.57,119.4L485.93,130.25L487.29,111.95L488.64,104.49L490,141.1" style="vector-effect: none; fill: none; stroke: rgb(255, 102, 146); stroke-opacity: 1; stroke-width: 2px; opacity: 1;"/></g><g class="points"/><g class="text"/></g><g class="trace scatter traced0d3d3" style="stroke-miterlimit: 2; opacity: 1;"><g class="fills"/><g class="errorbars"/><g class="lines"><path class="js-line" d="M0,35.77L4.07,52.93L5.43,61.63L6.79,60.87L8.14,67.64L9.5,66.2L10.86,75.33L12.22,70.59L13.57,71.36L14.93,79.89L16.29,79.3L17.65,82.77L19,82.77L20.36,89.11L21.72,88.77L23.07,91.56L24.43,90.97L25.79,98.83L27.15,99.51L28.5,105L29.86,98.83L31.22,107.71L32.58,104.58L33.93,106.61L35.29,115.65L36.65,109.57L38.01,115.23L40.72,115.82L42.08,121.4L43.43,119.03L44.79,124.11L46.15,124.61L47.51,126.05L48.86,126.05L50.22,130.61L51.58,126.64L52.94,133.07L54.29,135.1L55.65,131.63L57.01,135.86L58.37,136.79L61.08,134.08L62.44,134.25L63.8,143.04L65.15,140.25L66.51,147.1L67.87,142.37L69.22,144.06L70.58,144.14L71.94,148.79L73.3,145.49L74.65,143.97L76.01,152.85L77.37,151.92L78.73,148.28L82.8,156.74L84.16,153.69L85.51,151.5L86.87,152.85L88.23,157.67L89.58,155.55L92.3,162.23L93.66,154.62L95.01,161.72L96.37,160.79L97.73,162.99L99.09,167.13L100.44,164.18L101.8,168.15L103.16,165.44L104.52,165.95L105.87,169.75L107.23,164.09L109.94,167.64L111.3,165.78L112.66,166.2L114.02,165.27L115.37,171.36L116.73,173.31L118.09,168.66L119.45,171.36L120.8,176.94L122.16,166.46L124.88,173.39L126.23,174.57L127.59,174.4L128.95,168.99L131.66,178.55L133.02,174.66L137.09,176.52L138.45,175.67L139.81,179.14L141.16,174.49L142.52,176.1L143.88,179.65L145.24,178.21L146.59,179.39L147.95,179.65L149.31,176.94L150.66,181.25L152.02,178.55L154.74,183.11L156.09,181.34L157.45,175L158.81,182.1L161.52,183.62L162.88,183.96L165.6,179.81L166.95,178.04L168.31,184.13L169.67,184.63L171.02,181.42L172.38,184.29L173.74,183.78L175.1,187.79L177.81,184.29L179.17,187.11L180.53,183.44L181.88,185.14L183.24,186.18L184.6,189.98L187.31,184.89L188.67,184.98L190.03,184.1L191.39,188.76L192.74,190.44L194.1,188.68L195.46,196.69L196.81,193.52L198.17,186.48L199.53,185.7L200.89,190.56L202.24,189.39L204.96,185.26L206.32,189.26L207.67,190.59L209.03,193.07L210.39,192.31L211.75,188.49L213.1,189.95L214.46,190.24L217.17,188.02L218.53,192.05L219.89,192.35L221.25,191.4L222.6,188.41L223.96,191.17L225.32,188.18L226.68,187.34L228.03,193.79L229.39,193.04L232.11,196L233.46,192.25L234.82,192.37L236.18,197.99L237.53,192.24L238.89,191.79L240.25,194.61L241.61,190.86L242.96,193.14L244.32,193.37L247.04,194.1L248.39,198.21L249.75,191.69L251.11,190.61L253.82,193.76L255.18,197.35L256.54,193.79L257.89,194.6L259.25,194.62L260.61,199.88L261.97,192.4L263.32,194.89L264.68,197.72L266.04,202.85L267.4,200.73L268.75,190.77L270.11,205.76L271.47,199.5L272.83,194.95L274.18,205.53L275.54,202.11L276.9,200.9L278.25,199.09L279.61,202.92L280.97,192.62L282.33,202.79L283.68,193.48L285.04,207.42L286.4,205.36L287.76,206.05L289.11,208.05L290.47,204.25L291.83,202L293.19,207.75L294.54,201.71L295.9,206.41L297.26,207.97L298.61,210.79L299.97,208.28L301.33,203.66L302.69,208.86L304.04,206.91L306.76,199.76L308.12,204.96L309.47,203.99L310.83,204.08L312.19,198.19L313.55,206.14L314.9,201.31L316.26,217.81L317.62,201.71L318.98,214.17L320.33,207.94L321.69,210.16L324.4,193.26L325.76,206.18L327.12,208.67L328.48,206.18L329.83,203.2L331.19,189.77L333.91,205.19L335.26,204.2L336.62,203.7L337.98,199.72L339.34,206.68L340.69,193.26L342.05,214.14L343.41,202.7L344.76,201.21L346.12,196.24L347.48,199.07L348.84,197.2L350.19,224.65L351.55,203.66L352.91,204.31L354.27,211.46L356.98,199.11L358.34,220.57L359.7,216.02L361.05,202.36L362.41,215.09L363.77,213.69L365.12,212.47L366.48,205.55L367.84,210.93L369.2,201.71L370.55,209.39L371.91,206.32L373.27,198.33L374.63,203.59L375.98,228.95L377.34,205.94L378.7,203.82L380.06,213.33L381.41,206.99L382.77,213.33L384.13,224.25L385.48,205.94L388.2,228.48L389.56,205.09L390.91,203.4L392.27,222L393.63,201.71L394.99,208.47L396.34,203.4L397.7,191.14L399.06,193.26L400.42,205.94L401.77,199.6L403.13,186.92L404.49,195.37L405.84,197.48L407.2,186.92L408.56,195.37L409.92,197.48L411.27,186.92L412.63,193.26L413.99,212.28L415.35,193.26L416.7,205.94L418.06,189.03L419.42,201.71L422.13,178.46L423.49,184.8L426.2,235.52L427.56,198.89L428.92,187.62L430.28,193.26L431.63,218.62L432.99,196.07L434.35,241.16L435.71,201.71L438.42,229.89L439.78,212.98L441.14,218.62L442.49,193.26L443.85,179.17L445.21,201.71L447.92,227.07L449.28,181.98L450.64,221.43L451.99,201.71L453.35,212.98L454.71,198.89L456.07,201.71L457.42,222.84L458.78,218.62L460.14,210.16L461.5,205.94L462.85,210.16L464.21,218.62L465.57,218.62L466.93,176.35L468.28,193.26L469.64,176.35L471,201.71L472.35,193.26L473.71,159.44L475.07,150.99L476.43,201.71L477.78,210.16L479.14,243.98L480.5,218.62L481.86,227.07L483.21,243.98L484.57,193.26L485.93,218.62L487.29,210.16L488.64,210.16L490,243.98" style="vector-effect: none; fill: none; stroke: rgb(182, 232, 128); stroke-opacity: 1; stroke-width: 2px; opacity: 1;"/></g><g class="points"/><g class="text"/></g><g class="trace scatter trace2bd4e4" style="stroke-miterlimit: 2; opacity: 1;"><g class="fills"/><g class="errorbars"/><g class="lines"><path class="js-line" d="M0,69.56L1.36,68.89L2.71,73.25L8.14,83.75L9.5,87.62L10.86,88.91L12.22,92.52L13.57,95.76L14.93,95.82L16.29,97.22L17.65,100.75L21.72,107.33L23.07,107.53L24.43,108.42L25.79,112.72L27.15,112.84L28.5,116.63L29.86,116.53L31.22,119.79L33.93,121.36L35.29,123.57L36.65,127.19L38.01,127.03L40.72,128.45L42.08,130.07L44.79,132.91L46.15,133.72L47.51,134.83L48.86,137.48L55.65,143.46L57.01,143.36L58.37,142.65L59.72,145.2L61.08,146L62.44,144.5L65.15,149.93L66.51,148.32L67.87,148.59L69.22,154.12L70.58,153.31L71.94,153.52L73.3,152.34L74.65,155.21L77.37,156.61L78.73,155.52L80.08,154.9L81.44,159.06L82.8,157.7L84.16,159.35L85.51,161.43L86.87,160.25L88.23,160.39L89.58,161.64L90.94,160.68L92.3,163.51L93.66,162.86L95.01,164.17L96.37,163.89L97.73,165.15L99.09,165.24L100.44,164.51L101.8,166.38L103.16,166.03L105.87,167.71L107.23,166.95L108.59,168.41L109.94,167.76L112.66,170.61L114.02,169.02L116.73,171.3L118.09,170.67L123.52,172L124.88,173.21L126.23,173.24L127.59,172.11L128.95,172.72L130.3,175.58L131.66,172.78L133.02,174.46L134.38,175.01L135.73,176.76L137.09,176.28L138.45,174.4L141.16,176.81L142.52,174.16L143.88,176.17L145.24,176.79L146.59,177.99L147.95,177.72L149.31,177.92L150.66,179.53L152.02,178.02L153.38,178.74L154.74,178.07L156.09,179.77L157.45,177.4L158.81,181.15L160.17,178.87L161.52,178.09L162.88,179.45L164.24,179.1L165.6,178.92L166.95,181.49L171.02,178.9L172.38,182.34L173.74,180.82L175.1,182.7L176.45,180.34L177.81,181.91L179.17,179.45L180.53,182.22L181.88,183.91L183.24,181.28L184.6,181.84L185.96,180.91L187.31,182.68L188.67,182.68L191.39,184.43L192.74,181.62L194.1,183.77L195.46,181.33L198.17,181.26L199.53,183.44L200.89,181.05L202.24,182L204.96,183.58L206.32,183.22L211.75,182.61L213.1,181.59L214.46,186.46L215.82,183.82L217.17,182.28L218.53,183.92L221.25,187.54L222.6,186.86L223.96,186.23L225.32,182.66L226.68,186.64L228.03,185.58L229.39,183.33L230.75,185.8L233.46,185.71L234.82,188L237.53,184.66L238.89,188.34L240.25,186.87L241.61,187.17L242.96,184.97L244.32,184.25L245.68,186.09L247.04,186.01L248.39,185.46L249.75,188.3L251.11,184.85L252.47,188.01L253.82,186.52L255.18,187.37L256.54,186.37L257.89,189.08L259.25,186.26L260.61,187.51L261.97,184.17L263.32,183.55L264.68,185.56L266.04,185.34L267.4,186.98L268.75,186.97L271.47,185.17L272.83,187.39L274.18,184.75L275.54,187.91L278.25,185.94L279.61,188.44L280.97,186.72L282.33,182.1L283.68,188.08L285.04,187.59L286.4,187.57L287.76,185.25L290.47,184.21L291.83,186.73L294.54,181.11L295.9,181.07L297.26,182.9L298.61,181.21L299.97,186.73L301.33,186.81L302.69,181.3L304.04,183.41L305.4,186.45L306.76,179.24L309.47,183.8L310.83,184.96L312.19,184.66L313.55,185.33L314.9,182.93L316.26,183.16L317.62,180.94L318.98,180.7L320.33,181.63L321.69,186.56L323.05,180.57L324.4,183.99L328.48,173.62L329.83,182.04L331.19,177.67L332.55,181.6L333.91,181.82L335.26,180.47L336.62,174.58L337.98,183.04L339.34,177.41L340.69,180.75L343.41,181.31L344.76,175.43L347.48,184.13L348.84,179.62L351.55,176.75L352.91,181.73L354.27,176.8L355.62,178.27L356.98,185.57L358.34,177.26L359.7,184.04L361.05,181.23L362.41,180.86L363.77,177.71L365.12,187.25L366.48,183.52L367.84,183.83L369.2,181.38L370.55,178.12L371.91,178.23L373.27,179.2L374.63,181.21L375.98,183.39L377.34,177.48L378.7,178.9L380.06,178.84L381.41,183.39L382.77,172.72L384.13,185.92L385.48,186.47L386.84,179.48L388.2,187.31L389.56,182.65L390.91,167.14L392.27,181.26L393.63,184.66L394.99,188.27L396.34,174.71L397.7,188.81L399.06,190.08L401.77,176.25L403.13,185.7L404.49,184.45L405.84,180.36L407.2,174.34L408.56,191.94L409.92,193.07L411.27,187.97L412.63,183.16L413.99,184.62L415.35,187.91L416.7,173.79L419.42,188.8L420.78,174.85L423.49,189.77L424.85,192.46L426.2,175.89L427.56,192.77L428.92,186.07L430.28,183.17L431.63,186.06L432.99,180.72L434.35,192.31L435.71,193.4L438.42,190.51L439.78,196.75L441.14,190.81L442.49,196.78L443.85,184.66L445.21,185.24L446.57,184.25L447.92,191.35L449.28,193.31L450.64,179.73L451.99,189.68L453.35,190.09L454.71,198.45L456.07,192.48L457.42,176.83L458.78,184.07L460.14,185.65L461.5,180.08L462.85,171.27L464.21,181.03L465.57,166.68L466.93,168.37L468.28,194.43L469.64,155.6L471,190.6L472.35,187.52L473.71,185.3L475.07,175.68L476.43,184.94L477.78,167.2L479.14,185.32L480.5,173.72L481.86,169.29L483.21,192.85L484.57,163.88L485.93,171.38L487.29,196.17L488.64,183.12L490,192.31" style="vector-effect: none; fill: none; stroke: rgb(255, 151, 255); stroke-opacity: 1; stroke-width: 2px; opacity: 1;"/></g><g class="points"/><g class="text"/></g><g class="trace scatter trace9e3596" style="stroke-miterlimit: 2; opacity: 1;"><g class="fills"/><g class="errorbars"/><g class="lines"><path class="js-line" d="M0,162.27L490,162.27" style="vector-effect: none; fill: none; stroke: rgb(254, 203, 82); stroke-opacity: 1; stroke-width: 2px; opacity: 1;"/></g><g class="points"/><g class="text"/></g><g class="trace scatter trace5a13f9" style="stroke-miterlimit: 2; opacity: 1;"><g class="fills"/><g class="errorbars"/><g class="lines"><path class="js-line" d="M0,18.79L1.36,20.94L2.71,25.6L4.07,35.46L5.43,35.39L6.79,37.73L8.14,41.79L9.5,48.17L10.86,49.73L12.22,55.41L13.57,54.85L16.29,60.46L17.65,62.37L19,65.27L20.36,75.43L21.72,73.81L23.07,73.68L24.43,73.43L25.79,79.47L28.5,87.43L29.86,89.52L31.22,88.75L32.58,95.51L33.93,97.63L35.29,93.94L38.01,101.27L39.36,98.93L40.72,103.58L42.08,111.17L43.43,110.59L44.79,108.03L46.15,113.87L47.51,113.2L48.86,116.97L50.22,117.67L51.58,120.66L52.94,121.51L54.29,122.18L55.65,126.5L57.01,129.62L58.37,127.89L59.72,125.91L61.08,133.01L62.44,132.11L63.8,133.71L66.51,139.69L67.87,138.83L69.22,139.48L70.58,141.44L71.94,139.01L73.3,142.61L74.65,142.81L76.01,139.12L77.37,147.84L78.73,145.93L80.08,147.84L81.44,151.48L82.8,148.81L84.16,148.67L85.51,152.15L86.87,153.32L88.23,159.91L89.58,153.28L90.94,152.31L92.3,155.21L93.66,159.61L95.01,159.75L96.37,158.13L97.73,162.83L100.44,158.76L101.8,165.14L103.16,166.96L104.52,165.72L105.87,168.8L107.23,170.02L108.59,169.07L109.94,170.13L111.3,167.84L112.66,167.3L114.02,168.26L115.37,171.18L116.73,169.18L118.09,173.14L119.45,171.66L120.8,176.58L122.16,175.34L123.52,172.49L124.88,176.33L126.23,173.93L127.59,175.34L128.95,173.63L131.66,173.23L133.02,177.43L134.38,179.92L135.73,179.41L137.09,175.97L138.45,180.94L139.81,179L141.16,179.36L142.52,178.91L143.88,185.7L145.24,182.55L146.59,183.18L147.95,179.81L149.31,186.98L152.02,184.71L153.38,183.59L154.74,187.16L156.09,186.33L157.45,184.4L158.81,185.32L160.17,187.7L161.52,186.33L162.88,193.56L164.24,186.57L165.6,184.51L166.95,190.55L168.31,189.09L169.67,189.27L171.02,190.8L172.38,189.05L173.74,192.33L175.1,193.65L176.45,195.65L177.81,195.12L179.17,187.14L180.53,190.4L181.88,195.37L183.24,195.36L185.96,191.95L187.31,193.17L190.03,195.95L191.39,191.7L194.1,194.46L195.46,195.72L196.81,197.1L198.17,193.66L200.89,196.76L202.24,193.2L203.6,197.69L204.96,194.74L206.32,200.87L207.67,198.78L210.39,197.5L211.75,198.56L214.46,194.95L215.82,196.4L217.17,192.97L218.53,198.72L219.89,193.88L221.25,201.25L222.6,200.84L223.96,198.51L225.32,195.53L226.68,202.53L228.03,199.31L229.39,201.01L230.75,201.31L232.11,202.86L233.46,201.35L234.82,204.93L236.18,208.52L237.53,203.16L238.89,204.44L240.25,200.31L241.61,203.1L242.96,199.74L244.32,202.22L245.68,202.72L247.04,206.51L248.39,204.04L249.75,197.26L251.11,204.28L252.47,204.72L253.82,206.26L255.18,210.73L256.54,205.29L257.89,203.9L259.25,209.5L260.61,204.1L261.97,203.36L263.32,206.09L264.68,205.31L267.4,208.42L268.75,207.73L270.11,209.58L271.47,206.44L274.18,213.09L275.54,207.68L276.9,212.12L278.25,210.47L279.61,210.04L280.97,205.5L282.33,208.97L283.68,215.75L285.04,215.97L286.4,214.88L287.76,206.92L289.11,214L290.47,210.47L291.83,213.9L293.19,213.41L294.54,217.7L295.9,213.71L297.26,214.63L298.61,210.22L299.97,219.37L301.33,211.62L302.69,209.03L304.04,218.1L305.4,202.98L306.76,221.12L308.12,211.27L309.47,208.25L310.83,211.51L312.19,218.52L313.55,206.19L314.9,214.53L316.26,215.17L317.62,213.03L318.98,208.42L320.33,212.55L321.69,203.45L323.05,212.91L324.4,207.59L325.76,218.04L327.12,205.62L328.48,204.56L329.83,216.46L331.19,218.57L332.55,208.53L333.91,220.69L335.26,217.65L336.62,204.03L337.98,209.45L339.34,225.58L340.69,210.91L342.05,202.45L343.41,212.62L344.76,204.43L346.12,209.72L347.48,217.44L348.84,210.02L350.19,210.04L351.55,205.05L352.91,204.36L354.27,215.77L355.62,216.8L356.98,203.84L358.34,213.35L359.7,205.74L361.05,212.48L362.41,224.88L363.77,207.66L365.12,212.58L366.48,219.32L367.84,217.07L369.2,220.13L370.55,216.66L373.27,219.83L374.63,209.72L375.98,211.46L377.34,216.18L378.7,220.39L380.06,230.5L382.77,206.91L384.13,219.83L385.48,216.08L386.84,217.58L388.2,224.32L389.56,223.2L390.91,202.53L392.27,223.2L393.63,223.2L394.99,206.57L396.34,203.87L397.7,209.72L399.06,207.47L400.42,199.61L401.77,206.91L403.13,222.64L404.49,195.67L405.84,188.37L407.2,230.5L408.56,214.21L409.92,209.15L411.27,199.61L412.63,201.85L413.99,194.55L415.35,229.38L416.7,204.1L418.06,198.48L419.42,210.84L420.78,218.14L422.13,216.46L423.49,215.33L424.85,203.72L426.2,204.47L427.56,250.91L428.92,214.21L430.28,200.73L431.63,199.23L432.99,226.19L434.35,218.7L435.71,217.95L437.06,211.96L438.42,223.2L439.78,230.69L441.14,205.97L443.85,229.19L445.21,184.25L446.57,223.95L447.92,225.44L449.28,239.67L450.64,219.45L453.35,205.97L454.71,211.21L456.07,182.76L457.42,198.48L458.78,222.07L460.14,220.95L461.5,200.73L462.85,214.21L464.21,191.74L465.57,191.74L468.28,223.2L469.64,218.7L471,178.26L472.35,243.42L473.71,205.22L475.07,214.21L476.43,187.25L477.78,189.5L479.14,171.52L480.5,196.24L481.86,216.46L483.21,196.24L484.57,207.47L485.93,205.22L487.29,205.22L488.64,225.44L490,207.47" style="vector-effect: none; fill: none; stroke: rgb(99, 110, 250); stroke-opacity: 1; stroke-width: 2px; opacity: 1;"/></g><g class="points"/><g class="text"/></g><g class="trace scatter tracee1a3af" style="stroke-miterlimit: 2; opacity: 1;"><g class="fills"/><g class="errorbars"/><g class="lines"><path class="js-line" d="M0,304L1.36,294.33L2.71,295.68L6.79,276.7L8.14,274.13L9.5,272.33L10.86,272.86L12.22,269.99L13.57,261.3L16.29,260.99L17.65,254.37L19,257.73L20.36,250.64L24.43,244.76L25.79,244.31L27.15,242.43L28.5,236.82L29.86,234.91L31.22,230.31L32.58,225.63L33.93,224.87L35.29,227.7L36.65,222.44L39.36,216.91L40.72,221.88L43.43,213.27L44.79,214.36L46.15,208.91L47.51,207.23L48.86,204.54L50.22,205.65L51.58,205.02L52.94,200.69L54.29,205.48L55.65,198.17L57.01,200.15L58.37,197.72L61.08,194.2L62.44,196.87L63.8,192.6L65.15,191.44L66.51,184.76L67.87,186L69.22,183.06L70.58,185.42L71.94,184.11L73.3,178.18L74.65,178.42L76.01,180.02L77.37,180.88L78.73,174.52L80.08,173.46L81.44,173.55L82.8,171.26L84.16,172.57L85.51,169.61L86.87,173.8L88.23,168.93L89.58,166.92L90.94,167.05L92.3,164.66L95.01,166.22L96.37,164.39L99.09,166.26L100.44,168.69L101.8,164.69L103.16,165.44L104.52,156.48L105.87,159.41L107.23,154.21L108.59,155.44L109.94,154.75L111.3,151.04L112.66,158.19L114.02,155.9L115.37,152.56L116.73,153.11L118.09,151.7L119.45,152.62L120.8,150.12L122.16,150.25L123.52,148.9L124.88,152.97L126.23,147.19L127.59,145.41L128.95,152.61L130.3,145.24L131.66,144.79L133.02,147.7L134.38,139.62L135.73,149.46L137.09,142.23L138.45,145.14L139.81,145.22L141.16,140.12L142.52,146.45L143.88,140.07L145.24,143.2L146.59,138.54L147.95,146.25L149.31,143.96L150.66,145.48L152.02,138.16L153.38,143.3L154.74,141.69L156.09,143.02L157.45,140.75L158.81,136.9L160.17,141.14L161.52,138.47L162.88,137.54L164.24,135.53L165.6,131.35L166.95,136.38L168.31,136.46L169.67,137.13L171.02,136.27L172.38,138.73L173.74,133.79L176.45,129.82L177.81,134.55L179.17,131.83L180.53,134.37L181.88,131.06L183.24,129.74L185.96,134.1L187.31,131.37L188.67,130.08L190.03,132.36L191.39,133.16L192.74,127.76L194.1,130.34L195.46,130.09L196.81,128.77L198.17,132.19L200.89,126.78L202.24,129.11L203.6,122.78L204.96,128.11L206.32,133.04L207.67,127.58L209.03,130.06L210.39,125.59L211.75,130.06L213.1,126.13L214.46,130.79L215.82,127.37L217.17,130.95L218.53,127.65L219.89,127.11L221.25,121.81L222.6,129.9L223.96,128.24L226.68,130.81L228.03,127.56L229.39,124.14L230.75,123.9L232.11,127.13L233.46,127.53L234.82,122.32L236.18,122.69L237.53,125.76L238.89,125.54L240.25,122.08L241.61,123.33L242.96,121L244.32,122.66L245.68,122.5L247.04,128.93L248.39,121.93L249.75,121.83L252.47,119.69L253.82,121.01L255.18,117.65L256.54,118.13L257.89,121.18L259.25,130.42L261.97,117.57L263.32,119.83L264.68,120L266.04,115.46L267.4,118.54L268.75,118.89L270.11,113.79L271.47,117.22L272.83,121.3L274.18,118.27L275.54,119.08L276.9,122.18L278.25,107.97L279.61,123.25L280.97,118.17L282.33,116.12L283.68,111.15L285.04,111.19L287.76,121.96L289.11,108.35L290.47,115.26L291.83,110.17L293.19,115.39L294.54,111.42L295.9,118.2L297.26,114.49L299.97,110.33L301.33,112.46L302.69,120.78L304.04,113.96L305.4,122.78L306.76,125.16L308.12,113.21L309.47,113.39L312.19,107.3L313.55,119.08L314.9,120.09L316.26,112.07L317.62,104.79L318.98,106.29L320.33,120.55L321.69,119.13L323.05,115.19L324.4,119.39L325.76,101.39L327.12,115.37L328.48,114.89L329.83,116.61L331.19,107.42L332.55,122.07L333.91,103.35L335.26,112.25L336.62,115.84L337.98,115.37L339.34,122.26L340.69,113.07L342.05,110.29L343.41,125.27L344.76,111.35L346.12,118.43L348.84,124.8L350.19,124.9L351.55,115.8L352.91,114.68L354.27,111.42L355.62,121.87L356.98,103.35L358.34,111.42L359.7,122.5L361.05,109.8L362.41,114.01L363.77,108.31L366.48,116.1L367.84,110.34L369.2,106.49L370.55,110.71L371.91,102.72L373.27,113.17L374.63,107.68L375.98,110.39L378.7,92.69L380.06,100.72L381.41,107.13L382.77,91.47L384.13,109.13L385.48,86.48L386.84,104.25L388.2,98.01L389.56,118.46L390.91,107.07L392.27,107.39L393.63,127.73L394.99,112.92L396.34,132.94L397.7,124.31L399.06,98.28L400.42,108.86L401.77,94.41L403.13,125.54L404.49,137.13L405.84,104.99L407.2,110.89L408.56,115.37L409.92,136.11L411.27,108.04L412.63,109.47L413.99,144.66L415.35,115.77L416.7,122.89L418.06,110.28L419.42,115.16L420.78,109.47L422.13,125.33L423.49,101.94L424.85,113.2L426.2,109.13L427.56,87.97L428.92,117.26L430.28,127.03L431.63,125.94L432.99,106.14L434.35,116.99L435.71,79.02L437.06,93.67L438.42,99.64L439.78,125.13L442.49,91.5L443.85,114.28L445.21,131.37L446.57,102.08L447.92,122.42L449.28,117.53L450.64,114.82L451.99,88.79L453.35,128.11L454.71,116.99L456.07,103.16L457.42,130.42L458.78,108.04L460.14,133.26L461.5,116.18L462.85,159.3L464.21,90.14L465.57,151.98L468.28,103.16L469.64,84.45L471,137.33L472.35,152.79L473.71,147.1L475.07,95.84L476.43,90.96L477.78,89.33L479.14,60.85L480.5,97.47L481.86,103.16L483.21,116.99L484.57,89.33L485.93,144.66L487.29,110.48L488.64,108.04L490,112.11" style="vector-effect: none; fill: none; stroke: rgb(239, 85, 59); stroke-opacity: 1; stroke-width: 2px; opacity: 1;"/></g><g class="points"/><g class="text"/></g><g class="trace scatter trace297094" style="stroke-miterlimit: 2; opacity: 1;"><g class="fills"/><g class="errorbars"/><g class="lines"><path class="js-line" d="M0,32.4L2.71,48.76L4.07,54.6L5.43,59.94L6.79,61.61L8.14,67.86L9.5,67.28L10.86,68.36L12.22,71.28L14.93,82.05L16.29,78.63L23.07,96.57L24.43,92.39L25.79,96.32L27.15,95.31L28.5,107.16L29.86,103.16L31.22,105.33L32.58,110.83L33.93,106.66L35.29,109.92L36.65,115.34L38.01,114.51L39.36,114.01L40.72,115.92L44.79,123.68L46.15,120.85L47.51,125.35L48.86,123.68L50.22,123.43L51.58,128.27L54.29,137.78L55.65,135.53L57.01,135.62L58.37,137.28L59.72,137.37L61.08,141.71L62.44,141.46L63.8,135.87L65.15,139.7L66.51,141.04L67.87,142.04L69.22,145.04L71.94,145.29L73.3,149.63L74.65,151.89L76.01,146.8L77.37,148.63L78.73,154.22L80.08,146.88L81.44,154.72L82.8,150.47L84.16,154.97L85.51,156.56L86.87,156.22L88.23,158.39L89.58,158.06L90.94,158.31L92.3,156.81L93.66,165.15L95.01,161.15L96.37,158.64L97.73,161.82L99.09,160.06L100.44,160.56L103.16,165.82L104.52,164.65L107.23,164.65L108.59,166.07L109.94,165.57L111.3,166.07L112.66,167.32L114.02,165.4L116.73,171.24L118.09,171.74L119.45,168.16L120.8,172.58L122.16,172.16L123.52,167.16L124.88,173.16L126.23,170.16L128.95,175.25L130.3,175.08L134.38,171.99L135.73,172.58L137.09,173.16L138.45,177.25L139.81,179.09L141.16,178.42L142.52,178.42L143.88,177.33L145.24,180.84L146.59,177.59L147.95,182.93L149.31,179L150.66,179L152.02,181.67L153.38,182.26L154.74,180.76L156.09,174.83L157.45,184.68L158.81,180.34L160.17,179.67L162.88,184.84L164.24,178.92L165.6,186.76L166.95,184.84L168.31,183.18L169.67,185.85L171.02,181.67L172.38,187.68L175.1,184.94L176.45,186.37L177.81,188.05L179.17,186.54L180.53,186.37L181.88,181.4L183.24,186.05L184.6,186.39L185.96,189.48L187.31,188L190.03,187.48L191.39,189.66L192.74,186.01L194.1,186.09L195.46,186.27L196.81,187.4L198.17,186.53L199.53,189.15L200.89,187.2L202.24,183.29L203.6,199.08L204.96,191.81L206.32,184.99L207.67,187.36L209.03,187.99L210.39,187.37L211.75,189.18L213.1,193.97L214.46,187.67L215.82,189.26L217.17,190.75L218.53,194.82L219.89,197.01L221.25,193.56L222.6,189.28L223.96,188.32L225.32,195.25L226.68,190.14L228.03,192.44L229.39,191.8L230.75,191.68L232.11,192.98L233.46,197.05L234.82,193.43L236.18,188.65L237.53,192.33L238.89,191.66L240.25,194.33L241.61,192.21L242.96,195.18L244.32,191.38L245.68,193.63L247.04,196.01L248.39,193.15L249.75,191.01L251.11,198.04L252.47,200.41L253.82,191.19L255.18,198.04L256.54,197.47L257.89,193.76L259.25,193.92L260.61,204.26L261.97,199.93L263.32,197.41L264.68,198.1L266.04,193.88L267.4,194.84L268.75,195.38L270.11,198.87L271.47,199.15L272.83,192.07L274.18,206.74L275.54,208.93L276.9,208.33L278.25,196.01L279.61,204.16L280.97,196.19L282.33,198L283.68,202.32L287.76,208.22L289.11,212.51L290.47,202.73L291.83,205.96L293.19,202.87L294.54,202.02L295.9,200.16L297.26,205.42L298.61,206.34L299.97,196.15L301.33,199.82L302.69,196.61L304.04,199.18L305.4,208.8L308.12,205.92L309.47,202.39L312.19,209.82L313.55,195.22L316.26,205.55L317.62,202.54L318.98,201.66L320.33,205.61L321.69,197.71L323.05,204.29L324.4,200.34L325.76,215.01L327.12,204.22L328.48,205.69L329.83,197.35L331.19,207.16L332.55,207.65L333.91,213.54L335.26,215.51L336.62,198.33L339.34,204.71L340.69,199.8L342.05,198.82L343.41,207.16L346.12,196.36L347.48,200.78L348.84,195.22L350.19,203.76L351.55,206.56L352.91,194.36L355.62,204.63L356.98,202.06L358.34,207.2L359.7,203.35L361.05,202.06L362.41,213.99L363.77,226.51L365.12,198.51L366.48,214.43L367.84,220.5L370.55,208.37L371.91,227.33L373.27,220.81L374.63,220.25L375.98,208.2L377.34,211.21L378.7,227.9L380.06,204.95L381.41,208.08L382.77,236.24L385.48,202.17L386.84,204.95L388.2,209.12L389.56,200.78L392.27,192.44L393.63,207.46L394.99,212.46L396.34,199.11L397.7,213.3L399.06,175.75L400.42,186.18L401.77,190.35L403.13,209.12L404.49,192.44L405.84,186.18L407.2,207.04L408.56,209.12L409.92,196.61L411.27,177.84L412.63,184.09L413.99,194.52L415.35,194.52L416.7,204.95L418.06,196.61L419.42,194.52L420.78,200.78L423.49,221.64L424.85,192.44L426.2,200.78L427.56,198L428.92,206.34L430.28,220.25L431.63,200.78L432.99,161.84L434.35,203.56L435.71,189.66L437.06,189.66L438.42,217.47L439.78,217.47L441.14,214.69L443.85,200.78L445.21,189.66L446.57,198L447.92,200.78L449.28,189.66L450.64,214.69L451.99,211.91L453.35,170.19L454.71,220.25L456.07,221.64L457.42,200.78L458.78,209.12L460.14,179.92L461.5,188.27L462.85,225.81L464.21,217.47L465.57,192.44L466.93,225.81L468.28,200.78L469.64,217.47L471,225.81L472.35,150.72L473.71,209.12L475.07,200.78L476.43,159.06L477.78,225.81L479.14,217.47L480.5,234.16L481.86,209.12L483.21,217.47L484.57,184.09L485.93,200.78L487.29,192.44L488.64,175.75L490,217.47" style="vector-effect: none; fill: none; stroke: rgb(0, 204, 150); stroke-opacity: 1; stroke-width: 2px; opacity: 1;"/></g><g class="points"/><g class="text"/></g><g class="trace scatter trace9a348c" style="stroke-miterlimit: 2; opacity: 1;"><g class="fills"/><g class="errorbars"/><g class="lines"><path class="js-line" d="M0,85.61L4.07,91.34L5.43,94.11L6.79,95.56L8.14,98.42L9.5,99.51L10.86,103.98L12.22,104.02L13.57,107.7L14.93,109.85L16.29,109.52L23.07,119.26L24.43,119.59L25.79,122.69L27.15,123.16L28.5,123.25L29.86,126.74L32.58,130.33L33.93,130.08L35.29,131.9L36.65,131.34L38.01,133.96L39.36,132.91L40.72,133.96L42.08,136.67L43.43,138.74L44.79,139.44L46.15,139.85L47.51,141.72L48.86,141.43L50.22,142.93L52.94,145.26L54.29,145.54L55.65,145.07L57.01,145.47L58.37,150.48L59.72,149.34L63.8,153.13L65.15,154.58L66.51,152.44L67.87,152.81L69.22,153.37L70.58,154.81L73.3,157.24L74.65,155.55L77.37,157.96L78.73,156.73L81.44,159.48L82.8,160.2L84.16,158.61L85.51,162.92L86.87,159.44L88.23,161.46L90.94,163.07L92.3,163.36L93.66,161.38L95.01,162.63L97.73,165.31L99.09,166.33L101.8,167.5L103.16,165.9L104.52,167.96L105.87,168.13L107.23,165.47L108.59,168.46L109.94,167.61L111.3,169.44L114.02,167.53L115.37,169.16L116.73,170.27L118.09,169.29L119.45,172.03L120.8,169.42L123.52,173.7L124.88,169.75L126.23,172.87L127.59,171.25L128.95,173.83L130.3,172.51L135.73,174.75L137.09,172.96L138.45,174.28L139.81,171.73L142.52,173.94L143.88,173.8L145.24,173.2L146.59,174.42L147.95,173.54L149.31,173.68L150.66,175.49L152.02,175.06L153.38,176.32L154.74,175.61L156.09,176.21L157.45,174.98L158.81,176.51L160.17,176.88L162.88,175.66L164.24,176.61L165.6,176.39L166.95,177.77L169.67,176.4L171.02,177.09L175.1,177.83L176.45,177.18L179.17,176.87L180.53,179.58L181.88,177.86L183.24,177.71L184.6,176.82L185.96,178.8L187.31,178.96L188.67,177.11L190.03,177.22L191.39,178.22L192.74,177.18L194.1,177.59L195.46,179.79L196.81,177L198.17,180.64L199.53,181.15L200.89,181.99L202.24,179.85L204.96,179.45L206.32,179.07L207.67,179.85L209.03,176.41L210.39,180.08L211.75,179.31L213.1,181.23L214.46,180.71L215.82,179.51L217.17,182.51L219.89,180.38L221.25,181.65L222.6,180.77L223.96,182.33L225.32,182.49L226.68,180.97L228.03,180.15L229.39,180.76L230.75,182.38L232.11,180.16L233.46,179.02L234.82,181.73L236.18,180.35L237.53,181.33L238.89,182.75L240.25,181.97L242.96,180.65L244.32,181.08L245.68,181.96L247.04,179.98L248.39,180.34L249.75,183.47L251.11,181.3L252.47,181.12L253.82,181.98L255.18,179.05L259.25,181.96L260.61,181.16L261.97,180.46L263.32,178.21L264.68,180.82L266.04,180.74L268.75,183.33L270.11,178.84L271.47,179.6L272.83,184.44L274.18,178.12L275.54,177.79L278.25,180.19L279.61,177.45L280.97,182.33L282.33,179.42L283.68,177.18L285.04,181.41L287.76,177.54L289.11,177.46L290.47,176.52L291.83,179.09L293.19,177.19L294.54,177.04L295.9,173.91L297.26,176.65L299.97,177.02L301.33,179.34L302.69,177.74L304.04,179.24L305.4,180.36L306.76,179.86L308.12,176.3L309.47,179.91L312.19,173L313.55,172.63L314.9,172.34L316.26,176.23L317.62,178.27L318.98,175.86L320.33,175.94L321.69,177.13L323.05,173.76L324.4,175.58L325.76,175.25L327.12,177.56L328.48,171.15L329.83,174.75L331.19,176.2L332.55,172.64L333.91,171.2L335.26,172.58L336.62,178.44L337.98,174.25L339.34,170.77L340.69,175.62L342.05,168.75L343.41,174.17L344.76,179.57L346.12,169.67L347.48,179.95L348.84,177.7L350.19,170.9L351.55,179.62L352.91,173.35L354.27,171.11L356.98,176.99L358.34,177.8L359.7,176.64L361.05,177.56L362.41,168.26L363.77,173.42L365.12,174.87L366.48,177.82L367.84,170.27L369.2,168.19L370.55,172.93L371.91,171.94L373.27,168.21L374.63,176.78L377.34,173.65L378.7,176.68L380.06,168.93L381.41,179.98L382.77,169.78L384.13,172.28L386.84,182.5L388.2,178.01L389.56,176.34L390.91,171.86L392.27,178.81L393.63,180.73L396.34,167.99L397.7,171.3L399.06,181.12L400.42,180.31L401.77,174.45L403.13,174.16L404.49,184.36L405.84,179.95L407.2,183.8L408.56,184.19L409.92,169.54L411.27,178.16L412.63,176.84L413.99,181.5L415.35,166.92L416.7,181.71L418.06,177.65L419.42,180.79L420.78,175.91L422.13,182.62L423.49,192.17L424.85,188.46L426.2,190.98L427.56,182.81L428.92,175.52L430.28,182.23L431.63,187.97L432.99,182.38L434.35,188.09L435.71,179.45L437.06,193.83L438.42,177.35L439.78,178.41L441.14,186.11L442.49,181.42L443.85,190.62L446.57,183.5L447.92,184.47L449.28,186.81L450.64,178.94L453.35,185.62L454.71,186.2L456.07,177.49L457.42,178.48L458.78,173.46L460.14,183.04L461.5,178.84L462.85,163.82L464.21,154.32L465.57,173.23L466.93,172.28L468.28,151.02L469.64,178.32L471,178.36L472.35,178.48L473.71,189.71L475.07,182.57L476.43,193.77L477.78,161.21L479.14,174.67L480.5,185.68L481.86,179.83L483.21,165.84L484.57,177.44L485.93,164.89L487.29,185.34L488.64,174.45L490,183.89" style="vector-effect: none; fill: none; stroke: rgb(171, 99, 250); stroke-opacity: 1; stroke-width: 2px; opacity: 1;"/></g><g class="points"/><g class="text"/></g><g class="trace scatter trace850224" style="stroke-miterlimit: 2; opacity: 1;"><g class="fills"/><g class="errorbars"/><g class="lines"><path class="js-line" d="M0,31.13L1.36,28.81L2.71,37.9L5.43,45.12L6.79,45.27L8.14,53.78L9.5,56.07L10.86,59.16L12.22,55.88L13.57,57.5L14.93,60.64L16.29,75.87L17.65,70.55L19,70.6L20.36,73.76L21.72,78.11L23.07,78.33L24.43,81.38L25.79,87.17L27.15,87.76L28.5,93.66L29.86,94.14L31.22,99.45L33.93,99.87L35.29,104.64L36.65,102.76L38.01,108.77L39.36,103.67L40.72,109.89L42.08,111.1L43.43,118.92L44.79,116.35L46.15,119.98L47.51,115.93L48.86,118.59L50.22,117.03L51.58,125.37L54.29,122.58L55.65,129.96L57.01,125.66L58.37,139.77L59.72,131.72L61.08,130.15L62.44,140.47L63.8,130.78L65.15,135.23L66.51,135.04L67.87,138.86L69.22,138.79L70.58,134.52L71.94,141.55L73.3,148.57L74.65,141.57L76.01,142.45L77.37,152.84L78.73,147.68L80.08,146.04L81.44,148.08L82.8,146.36L84.16,152.15L85.51,146.88L86.87,152.86L88.23,152.46L92.3,163.1L93.66,160.51L96.37,156.07L97.73,164.01L99.09,165.17L100.44,163.67L101.8,165.69L103.16,156.99L104.52,163.81L105.87,164.54L107.23,161.53L108.59,166.63L109.94,166.86L111.3,163.58L114.02,171.82L115.37,174.42L116.73,170.42L118.09,177.27L120.8,171.69L122.16,172.93L123.52,181.02L124.88,175.09L126.23,172.95L127.59,183.35L128.95,175.58L130.3,177.9L131.66,179.31L133.02,170.86L134.38,183.37L135.73,178.38L139.81,184.14L141.16,179.65L142.52,184.88L143.88,182.76L145.24,180.6L146.59,185.2L147.95,179.7L149.31,184.47L150.66,188.61L152.02,181.76L153.38,186.93L154.74,183.27L156.09,177.96L157.45,183.9L158.81,182.95L160.17,187.8L161.52,191.83L162.88,183.42L164.24,188.1L165.6,184.99L166.95,188.08L168.31,188.27L169.67,193.22L171.02,191.21L172.38,190.85L173.74,187L175.1,184.37L176.45,192.38L177.81,189.95L179.17,193.47L180.53,187.22L181.88,190.26L183.24,189.61L184.6,190.64L185.96,188.81L187.31,197.16L188.67,194.66L190.03,196.81L191.39,196.63L192.74,192.66L195.46,193.93L196.81,189.51L198.17,193.84L199.53,195.02L200.89,191.63L202.24,194.23L203.6,201.72L204.96,191.02L206.32,190.6L207.67,194.15L209.03,200.62L210.39,195.31L211.75,195.86L213.1,198.72L214.46,185.78L215.82,190.28L217.17,193.98L218.53,194.96L221.25,201.8L222.6,196.26L223.96,193.55L225.32,192.76L226.68,200.44L228.03,195.93L229.39,196.67L230.75,202.69L232.11,192.7L233.46,196.69L234.82,197.59L236.18,196.26L237.53,200.02L238.89,193.02L241.61,202.82L242.96,189.93L244.32,198.42L245.68,195.74L247.04,200.99L248.39,194.49L249.75,205.85L251.11,202.34L252.47,194.14L253.82,202.66L255.18,204.72L256.54,202.71L257.89,199.24L259.25,204.47L260.61,207.25L261.97,202.1L263.32,207.15L264.68,202.54L267.4,206.88L268.75,199.7L270.11,200.65L271.47,194.31L274.18,203.78L275.54,207.04L278.25,205.11L279.61,211.9L280.97,196.99L282.33,206.21L283.68,190.51L285.04,206.09L286.4,212.6L287.76,215.02L289.11,198.54L290.47,205.6L293.19,194.91L294.54,208.35L295.9,213.57L297.26,214.7L298.61,217.92L299.97,196.31L301.33,205.86L302.69,192.47L304.04,212.09L305.4,205.3L306.76,204.98L308.12,218.73L309.47,203.7L310.83,200.12L313.55,218.69L314.9,208.49L317.62,198.03L318.98,202.36L320.33,215.46L321.69,214.47L323.05,209.31L324.4,211.87L327.12,210.92L328.48,224.42L329.83,207.53L331.19,218.44L332.55,199.83L333.91,209.16L335.26,220.89L336.62,200.34L339.34,222.98L340.69,204.95L342.05,209.18L343.41,186.49L344.76,200.7L346.12,206.51L347.48,198.51L348.84,185.29L350.19,221.73L351.55,205.88L352.91,202.42L354.27,219.46L355.62,222.94L356.98,204.97L358.34,207.18L359.7,203.11L361.05,223.8L362.41,223.88L363.77,222.5L365.12,218.3L366.48,217.98L367.84,195.09L370.55,214.81L371.91,205.57L373.27,225.18L374.63,194.72L375.98,210.31L377.34,213.26L378.7,215.92L380.06,210.4L381.41,228.74L382.77,208.18L384.13,206.66L385.48,235.28L386.84,207.92L388.2,219.33L389.56,196.87L390.91,216.62L392.27,209.77L393.63,193.8L394.99,228.36L396.34,218.47L397.7,189.5L399.06,179.94L400.42,215.26L401.77,208.22L403.13,233.66L404.49,184.94L405.84,224.86L407.2,204.66L408.56,209.78L409.92,191.26L411.27,217.22L412.63,174.03L415.35,220.42L416.7,182.06L418.06,189.94L419.42,210.54L420.78,185.9L422.13,211.14L423.49,178.98L424.85,217.33L426.2,202.02L427.56,233.65L428.92,200.21L430.28,246.24L431.63,186.18L432.99,216.37L434.35,196.05L435.71,210.4L437.06,250.18L438.42,209.38L439.78,226.18L441.14,198.66L442.49,240.32L443.85,177.33L446.57,222.34L447.92,186.61L449.28,201.49L450.64,206.13L451.99,174.82L453.35,203.89L454.71,205.97L456.07,152.35L458.78,249.3L460.14,238.66L462.85,209.22L464.21,248.42L465.57,186.34L466.93,220.9L468.28,216.26L469.64,208.58L472.35,170.83L473.71,220.42L475.07,147.47L476.43,181.06L477.78,156.59L479.14,182.18L480.5,208.58L481.86,207.3L483.21,263.94L484.57,222.98L485.93,247.3L487.29,250.66L488.64,202.18L490,214.66" style="vector-effect: none; fill: none; stroke: rgb(255, 161, 90); stroke-opacity: 1; stroke-width: 2px; opacity: 1;"/></g><g class="points"/><g class="text"/></g><g class="trace scatter traceb81b10" style="stroke-miterlimit: 2; opacity: 1;"><g class="fills"/><g class="errorbars"/><g class="lines"><path class="js-line" d="M0,162.27L490,162.27" style="vector-effect: none; fill: none; stroke: rgb(25, 211, 243); stroke-opacity: 1; stroke-width: 2px; opacity: 1;"/></g><g class="points"/><g class="text"/></g><g class="trace scatter trace39f554" style="stroke-miterlimit: 2; opacity: 1;"><g class="fills"/><g class="errorbars"/><g class="lines"><path class="js-line" d="M0,30.95L1.36,44.51L2.71,48L4.07,50.32L5.43,50.71L9.5,61.17L10.86,61.56L12.22,67.76L13.57,62.72L17.65,83.64L19,80.93L21.72,82.09L23.07,84.03L25.79,89.46L27.15,86.74L29.86,99.92L31.22,95.65L32.58,106.12L33.93,101.47L35.29,103.02L36.65,109.6L38.01,109.6L39.36,110.77L40.72,111.54L42.08,117.74L43.43,113.87L44.79,119.29L46.15,123.94L47.51,114.64L48.86,123.94L50.22,124.71L51.58,124.71L52.94,135.18L55.65,128.98L57.01,122.78L59.72,134.79L61.08,134.4L62.44,137.5L63.8,131.3L65.15,132.46L66.51,135.18L67.87,140.21L69.22,140.99L70.58,141.37L71.94,145.25L73.3,145.64L74.65,144.86L76.01,147.96L77.37,147.96L78.73,142.54L80.08,144.86L81.44,149.9L82.8,149.9L84.16,147.57L85.51,148.74L86.87,154.55L88.23,149.51L89.58,160.75L90.94,162.3L92.3,156.1L93.66,165.01L95.01,164.23L96.37,165.4L97.73,158.04L99.09,167.33L100.44,161.52L101.8,162.3L103.16,171.6L104.52,170.05L105.87,160.75L107.23,167.72L108.59,163.07L109.94,169.27L111.3,171.6L112.66,167.72L114.02,170.05L115.37,169.27L118.09,162.3L119.45,175.47L120.8,168.5L122.16,172.37L123.52,177.8L124.88,175.47L126.23,170.05L127.59,177.02L128.95,175.08L130.3,175.47L131.66,174.31L133.02,180.12L134.38,176.63L135.73,175.47L137.09,177.41L138.45,176.63L139.81,180.12L141.16,180.51L143.88,175.47L145.24,178.57L146.59,188.64L147.95,178.96L149.31,184.77L150.66,182.45L152.02,182.06L153.38,173.92L154.74,183.61L156.09,181.28L157.45,183.61L158.81,182.45L160.17,188.26L161.52,184.77L162.88,188.26L164.24,185.16L165.6,192.52L166.95,191.74L168.31,188.26L169.67,188.26L171.02,189.81L172.38,186.32L175.1,190L176.45,188.05L177.81,186.09L179.17,186.87L180.53,192.35L181.88,184.52L183.24,193.37L184.6,196.92L185.96,186.17L187.31,193.04L188.67,188.6L190.03,194.25L191.39,193.04L192.74,188.19L194.1,190.61L195.46,189.81L196.81,189L198.17,194.25L199.53,191.46L200.89,198.05L202.24,192.28L203.6,190.02L206.32,197.1L207.67,196.55L209.03,191.1L210.39,202.21L211.75,189.14L213.1,202.5L214.46,190.73L215.82,188.42L217.17,195.8L218.53,195.34L219.89,199.49L221.25,200.2L222.6,201.62L223.96,197.22L225.32,194.17L226.68,196.1L228.03,192.5L229.39,196.43L230.75,203.14L232.11,201.63L233.46,196.43L234.82,194.9L236.18,198.33L237.53,197.81L238.89,196.78L240.25,193.16L241.61,193.47L242.96,200.69L244.32,188.44L245.68,190.91L247.04,190.91L248.39,199.22L249.75,194.79L251.11,201.66L252.47,190.67L253.82,194.72L255.18,196.47L256.54,200.57L257.89,203.64L259.25,199.18L260.61,201.43L261.97,197.36L263.32,197.62L264.68,204.06L266.04,204.71L267.4,194.28L268.75,191.71L270.11,206.76L271.47,194.86L272.83,204.87L274.18,196.26L275.54,208.26L276.9,207.33L278.25,196.26L279.61,209.18L280.97,213.05L282.33,192.29L283.68,192.87L285.04,208.13L286.4,203.94L287.76,211.27L289.11,210.39L290.47,202.72L291.83,199.83L293.19,198.11L294.54,199.13L295.9,207.74L297.26,207.74L298.61,197.7L299.97,194.83L301.33,204.71L302.69,207.69L305.4,218.12L306.76,206.2L308.12,203.22L309.47,206.2L310.83,210.73L312.19,205.95L314.9,194.42L316.26,209.18L317.62,194.9L318.98,207.14L320.33,192.87L321.69,205.1L323.05,196.94L324.4,205.1L325.76,216.02L327.12,202.34L328.48,211.46L329.83,197.78L331.19,195.5L332.55,200.06L335.26,188.67L336.62,193.23L337.98,218.3L339.34,193.23L340.69,195.5L342.05,204.62L343.41,209.18L344.76,200.06L346.12,190.95L347.48,209.18L348.84,188.52L350.19,206.41L351.55,224.08L352.91,212.16L355.62,197.26L356.98,203.22L358.34,197.26L359.7,218.12L362.41,196.26L363.77,189.81L365.12,202.14L366.48,195.09L367.84,212.7L369.2,188.05L371.91,233.84L373.27,201.43L374.63,200.57L375.98,213.48L377.34,228.55L378.7,189.81L380.06,194.65L381.41,228.55L382.77,223.71L384.13,235.01L385.48,176.89L386.84,222.09L388.2,209.18L389.56,216.93L390.91,201.43L392.27,224.68L394.99,178.18L396.34,216.93L397.7,199.49L399.06,218.87L400.42,218.87L401.77,180.12L407.2,218.87L408.56,180.12L409.92,199.49L411.27,189.81L412.63,238.24L413.99,160.75L415.35,238.24L416.7,209.18L419.42,170.43L420.78,209.18L422.13,180.12L423.49,228.55L424.85,222.09L426.2,235.01L427.56,196.26L428.92,209.18L430.28,183.35L431.63,209.18L432.99,222.09L434.35,183.35L435.71,235.01L437.06,235.01L438.42,235.01L439.78,209.18L441.14,183.35L442.49,209.18L445.21,209.18L446.57,222.09L447.92,247.93L449.28,196.26L450.64,209.18L451.99,235.01L453.35,196.26L454.71,196.26L456.07,228.55L457.42,209.18L458.78,170.43L460.14,209.18L461.5,247.93L462.85,209.18L468.28,209.18L469.64,247.93L471,286.67L472.35,209.18L473.71,247.93L475.07,209.18L476.43,170.43L477.78,170.43L479.14,247.93L480.5,170.43L481.86,247.93L483.21,209.18L484.57,209.18L485.93,247.93L487.29,209.18L488.64,209.18L490,209.18" style="vector-effect: none; fill: none; stroke: rgb(255, 102, 146); stroke-opacity: 1; stroke-width: 2px; opacity: 1;"/></g><g class="points"/><g class="text"/></g><g class="trace scatter trace830272" style="stroke-miterlimit: 2; opacity: 1;"><g class="fills"/><g class="errorbars"/><g class="lines"><path class="js-line" d="M0,162.27L490,162.27" style="vector-effect: none; fill: none; stroke: rgb(182, 232, 128); stroke-opacity: 1; stroke-width: 2px; opacity: 1;"/></g><g class="points"/><g class="text"/></g><g class="trace scatter tracefcf48a" style="stroke-miterlimit: 2; opacity: 1;"><g class="fills"/><g class="errorbars"/><g class="lines"><path class="js-line" d="M0,162.27L490,162.27" style="vector-effect: none; fill: none; stroke: rgb(255, 151, 255); stroke-opacity: 1; stroke-width: 2px; opacity: 1;"/></g><g class="points"/><g class="text"/></g><g class="trace scatter trace412a47" style="stroke-miterlimit: 2; opacity: 1;"><g class="fills"/><g class="errorbars"/><g class="lines"><path class="js-line" d="M0,299.74L2.71,280.35L4.07,283.97L5.43,274.94L6.79,278.86L8.14,270.53L9.5,269.4L12.22,260.57L13.57,259.97L17.65,250.61L19,245.76L20.36,243.04L21.72,246.29L23.07,235.1L24.43,234.11L25.79,233.81L27.15,227.93L28.5,233.91L29.86,226.54L32.58,224.55L33.93,226.77L36.65,216.15L38.01,214.39L39.36,223.12L40.72,216.25L42.08,209.31L43.43,213.42L44.79,211.27L46.15,206.55L47.51,199.88L48.86,201.97L50.22,200.41L51.58,202.5L52.94,194.93L54.29,205.75L55.65,197.52L57.01,196.66L58.37,198.68L59.72,195.69L61.08,184.84L62.44,191.28L63.8,189.35L65.15,189.25L66.51,184.84L67.87,187.89L69.22,185.6L70.58,187.93L71.94,178.2L73.3,181.45L74.65,180.12L76.01,180.02L77.37,176.7L78.73,181.42L80.08,178.2L81.44,181.88L82.8,172.95L84.16,170.03L85.51,175.14L86.87,167.34L88.23,168.94L89.58,168.24L90.94,169.23L92.3,166.91L93.66,164.22L95.01,166.28L96.37,160.3L97.73,163.59L99.09,159.01L100.44,150.78L101.8,161.93L103.16,160.1L104.52,158.34L105.87,163.72L107.23,161.27L108.59,155.09L109.94,162.73L111.3,157.75L112.66,152.9L114.02,156.42L115.37,154.69L116.73,155.99L118.09,156.09L119.45,149.71L122.16,157.02L123.52,156.95L124.88,154.79L126.23,146.96L127.59,153.07L128.95,147.79L133.02,143.87L134.38,150.58L135.73,149.68L137.09,145.96L138.45,151.9L139.81,143.5L141.16,142.08L142.52,146.59L143.88,139.65L145.24,140.98L146.59,147.92L147.95,142.11L149.31,146.29L150.66,142.34L152.02,137.23L153.38,137.89L154.74,137.59L156.09,144.37L158.81,137.89L160.17,140.48L161.52,139.99L162.88,132.85L164.24,134.74L165.6,138.03L166.95,131.55L168.31,145.63L169.67,138.59L171.02,138.29L172.38,136L173.74,132.03L176.45,133.94L177.81,133.87L179.17,137.66L180.53,134.51L181.88,129.61L183.24,131.26L184.6,136.4L185.96,130.39L187.31,133.82L188.67,132.16L190.03,136.03L191.39,132.92L192.74,131.78L194.1,135.93L195.46,137.69L196.81,126.97L198.17,132.74L199.53,129.95L200.89,134.54L202.24,126.56L203.6,130.8L204.96,128.69L206.32,130.51L207.67,130.25L209.03,132.78L210.39,128.58L211.75,132.3L213.1,128.56L214.46,128.35L215.82,127.16L217.17,127.16L218.53,126.29L219.89,126.45L221.25,128.81L222.6,127.15L223.96,132.96L225.32,121.77L226.68,127.46L228.03,130.69L229.39,129.26L232.11,128.48L233.46,128.75L234.82,122.24L236.18,127.61L237.53,128.98L238.89,123.89L240.25,131.15L241.61,128.42L244.32,116.66L245.68,122.24L247.04,118.68L248.39,123.71L249.75,133.53L251.11,120.8L252.47,119.36L253.82,128.23L255.18,122.7L256.54,122.41L257.89,120.51L259.25,121.19L260.61,124.18L261.97,124.01L263.32,121.78L264.68,122.57L266.04,134.86L267.4,129.81L268.75,116.05L270.11,120.57L271.47,111.02L272.83,127.1L274.18,117.08L275.54,119.69L276.9,118.82L278.25,111.23L279.61,126.65L280.97,110.4L283.68,130.8L285.04,119.58L286.4,116.89L287.76,121.01L289.11,125.76L290.47,111.9L291.83,114.78L293.19,108.98L294.54,130.54L295.9,124.76L297.26,106.93L298.61,121.19L299.97,128.57L301.33,125.92L302.69,119.92L304.04,108.81L305.4,123.62L306.76,119.15L308.12,114.17L309.47,116.98L310.83,121.19L312.19,117.74L313.55,109.34L314.9,130.68L316.26,117.72L317.62,121.37L318.98,123.12L320.33,127.48L321.69,107.74L323.05,121.37L324.4,129.41L325.76,123.73L327.12,114.16L328.48,113.97L329.83,120.02L331.19,115.53L332.55,105.77L333.91,108.5L335.26,129.2L336.62,102.25L337.98,124.51L339.34,106.55L342.05,127.44L343.41,108.3L346.12,120.61L347.48,119.95L348.84,124.07L350.19,134L352.91,121.7L354.27,125.79L356.98,106.89L358.34,120.43L359.7,101.53L361.05,108.94L362.41,122.3L363.77,119.81L366.48,94.94L367.84,114.25L369.2,105.8L370.55,113.35L371.91,125.12L373.27,100.28L374.63,120.09L375.98,125.25L377.34,104.59L378.7,112.06L380.06,113.72L381.41,129.08L382.77,108.33L384.13,103.49L385.48,103.49L386.84,101.83L388.2,133.92L389.56,120.53L390.91,116.55L392.27,115.22L393.63,136.47L394.99,124.51L396.34,106.59L397.7,156.88L399.06,121.19L400.42,131.15L401.77,122.02L403.13,122.85L404.49,122.02L405.84,113.72L407.2,124.51L408.56,101.27L409.92,100.44L411.27,119.53L413.99,111.23L415.35,113.72L418.06,128.66L419.42,115.38L420.78,102.1L422.13,124.51L423.49,86.33L424.85,182.06L426.2,128.94L427.56,120.09L428.92,118.98L430.28,97.95L432.99,122.3L434.35,121.19L435.71,101.27L437.06,122.3L438.42,134.47L439.78,114.55L441.14,128.94L442.49,132.26L443.85,94.63L445.21,122.3L446.57,109.02L447.92,109.02L449.28,117.87L450.64,84.67L453.35,127.83L454.71,131.15L456.07,132.81L457.42,114.55L458.78,141.11L460.14,127.83L461.5,139.45L462.85,107.91L464.21,137.79L465.57,104.59L466.93,144.43L468.28,107.91L469.64,151.07L471,107.91L472.35,134.47L473.71,127.83L475.07,154.39L476.43,127.83L477.78,141.11L479.14,84.67L480.5,177.63L481.86,114.55L483.21,71.39L484.57,144.43L485.93,104.59L487.29,161.03L488.64,94.63L490,144.43" style="vector-effect: none; fill: none; stroke: rgb(254, 203, 82); stroke-opacity: 1; stroke-width: 2px; opacity: 1;"/></g><g class="points"/><g class="text"/></g><g class="trace scatter tracefb50a3" style="stroke-miterlimit: 2; opacity: 1;"><g class="fills"/><g class="errorbars"/><g class="lines"><path class="js-line" d="M0,293.27L2.71,281.48L4.07,282.5L5.43,276.18L6.79,283.19L9.5,262.18L10.86,266.71L13.57,260.01L14.93,258.92L16.29,259.54L17.65,252.55L20.36,246.54L21.72,239.12L23.07,244.62L24.43,239.02L25.79,238.22L27.15,231.52L28.5,235.02L29.86,231.21L31.22,228.47L32.58,223.13L33.93,228.11L35.29,219.67L36.65,216.03L38.01,218.15L39.36,221.06L40.72,208.48L42.08,211.09L43.43,206.07L44.79,211.79L46.15,205.54L47.51,205.33L48.86,206.19L50.22,201.45L51.58,203.24L54.29,199.2L55.65,194.75L57.01,198.32L58.37,194.1L59.72,191.73L61.08,191.32L62.44,192.16L63.8,188.58L65.15,185.76L66.51,186.32L67.87,185.08L69.22,181.22L70.58,185.51L71.94,183.95L73.3,180.33L74.65,182.32L76.01,173.85L77.37,175.85L80.08,174.66L81.44,170.35L82.8,167.79L84.16,171.93L85.51,168.88L86.87,170.85L89.58,166.96L90.94,174.23L92.3,166.79L93.66,165.83L95.01,167.43L96.37,162.63L97.73,165.34L99.09,160.73L100.44,162.17L101.8,162.44L104.52,163.28L105.87,162.38L108.59,152.3L109.94,157.79L111.3,152.84L112.66,151.36L116.73,156.98L118.09,155.15L119.45,156.94L120.8,153.47L122.16,144.21L123.52,153.41L124.88,147.05L126.23,152.07L127.59,154.14L128.95,144.64L130.3,153.47L131.66,153.64L133.02,146.75L134.38,147.98L135.73,140.52L137.09,150.04L138.45,143.42L139.81,144.81L141.16,149.2L142.52,143.88L143.88,144.74L145.24,144.13L146.59,145.45L147.95,144.28L149.31,142.48L150.66,138.25L152.02,145.44L153.38,144.84L154.74,140.55L156.09,145.44L157.45,139.54L158.81,139.18L160.17,137.09L161.52,140.42L162.88,136.25L164.24,135.81L165.6,135.42L166.95,141.64L168.31,137.03L169.67,137.66L171.02,139.09L172.38,133.68L175.1,133.69L176.45,137.03L177.81,137.48L179.17,132.78L180.53,140.64L181.88,131.42L183.24,137.42L184.6,134.3L188.67,131.61L190.03,133.38L191.39,134.15L192.74,130.15L194.1,126.75L195.46,131.45L196.81,126.69L198.17,126.29L199.53,138.03L200.89,124.69L202.24,136.61L203.6,131.23L204.96,127.59L206.32,134.11L207.67,129.9L209.03,131.58L210.39,131.78L211.75,130.3L213.1,133.93L214.46,128.74L215.82,136.74L217.17,130.51L218.53,130.22L219.89,128.72L221.25,131.06L222.6,131.77L223.96,130.62L225.32,122.88L226.68,133.44L228.03,130.08L229.39,128.88L230.75,130.78L232.11,126.81L233.46,125.4L236.18,125.17L237.53,125.89L238.89,123.44L240.25,128.02L241.61,118.45L242.96,118.84L244.32,129.45L245.68,120.66L247.04,125.55L248.39,119.43L249.75,126.82L251.11,124.12L252.47,122.9L253.82,122.71L255.18,116.43L256.54,114.76L257.89,124.48L259.25,121.02L260.61,132.6L261.97,120.11L263.32,121.13L264.68,126.58L266.04,119.71L267.4,126.08L271.47,119.03L272.83,120.29L274.18,121.49L275.54,120.94L276.9,125.15L278.25,123.8L279.61,120.45L280.97,123.39L282.33,127.77L283.68,116.82L286.4,114.79L287.76,118.4L289.11,106.86L290.47,124.68L291.83,114.92L293.19,112.28L294.54,127.2L295.9,122.92L297.26,107.64L298.61,114.38L299.97,112.46L301.33,118.91L302.69,118.77L304.04,114.16L306.76,116.79L308.12,125.72L309.47,110.38L310.83,114.11L312.19,115.54L313.55,109.21L314.9,110.34L316.26,119.62L317.62,113.74L318.98,122.46L320.33,114.92L321.69,117.16L323.05,122.22L324.4,121L327.12,105.21L328.48,115.21L329.83,105.51L331.19,112.12L332.55,110.87L333.91,135.88L335.26,118.66L336.62,124.37L342.05,112.16L343.41,115.67L344.76,118.46L346.12,125.91L347.48,129.03L348.84,103.84L350.19,106.03L351.55,125.74L352.91,109.95L354.27,126.22L355.62,110.66L356.98,114.8L358.34,119.36L359.7,111.91L362.41,129.27L363.77,98.55L365.12,114.75L366.48,99.47L367.84,115.97L369.2,109.61L370.55,131.17L371.91,100.72L373.27,118.21L374.63,125.64L375.98,107.38L377.34,116.96L378.7,110.37L380.06,112.45L381.41,119.03L382.77,119.73L385.48,86.4L386.84,109.57L388.2,112.74L389.56,80.32L390.91,140.37L392.27,107.27L393.63,124.64L394.99,111.66L397.7,150.07L399.06,104.4L400.42,97.78L401.77,103.85L403.13,120.17L404.49,105.04L405.84,114.23L407.2,129.92L408.56,127.17L409.92,122.7L411.27,123.55L412.63,127.28L413.99,106.04L415.35,134.96L416.7,127.55L418.06,110.21L419.42,107.6L420.78,141.93L422.13,101.99L423.49,106.34L424.85,71.53L426.2,126.58L427.56,102.92L428.92,118.96L430.28,114.86L431.63,113.66L432.99,158.93L434.35,115.88L435.71,87.01L437.06,140.64L438.42,146.44L439.78,108.37L441.14,131.25L442.49,65.47L445.21,125.32L446.57,129.46L447.92,115.75L449.28,91.91L450.64,100.36L451.99,114.53L453.35,115.78L454.71,78.2L456.07,132.51L457.42,79.76L460.14,171.75L461.5,102.05L462.85,169.15L464.21,73.08L465.57,85.55L466.93,87.83L468.28,34.06L469.64,132.51L471,101.52L472.35,131.23L473.71,100.3L475.07,201.91L476.43,77.24L477.78,148.08L479.14,140.82L480.5,83.78L481.86,105.79L483.21,62.88L484.57,145.76L485.93,170.76L487.29,114.66L488.64,90.65L490,96.64" style="vector-effect: none; fill: none; stroke: rgb(99, 110, 250); stroke-opacity: 1; stroke-width: 2px; opacity: 1;"/></g><g class="points"/><g class="text"/></g></g></g></g><path class="xlines-above crisp" d="M0,0" style="fill: none;"/><path class="ylines-above crisp" d="M0,0" style="fill: none;"/><g class="overlines-above"/><g class="xaxislayer-above"><g class="xtick"><text text-anchor="middle" x="0" y="433" transform="translate(80,0)" style="font-family: 'Open Sans', verdana, arial, sans-serif; font-size: 12px; fill: rgb(42, 63, 95); fill-opacity: 1; white-space: pre; opacity: 1;">0</text></g><g class="xtick"><text text-anchor="middle" x="0" y="433" style="font-family: 'Open Sans', verdana, arial, sans-serif; font-size: 12px; fill: rgb(42, 63, 95); fill-opacity: 1; white-space: pre; opacity: 1;" transform="translate(215.73,0)">100</text></g><g class="xtick"><text text-anchor="middle" x="0" y="433" style="font-family: 'Open Sans', verdana, arial, sans-serif; font-size: 12px; fill: rgb(42, 63, 95); fill-opacity: 1; white-space: pre; opacity: 1;" transform="translate(351.47,0)">200</text></g><g class="xtick"><text text-anchor="middle" x="0" y="433" style="font-family: 'Open Sans', verdana, arial, sans-serif; font-size: 12px; fill: rgb(42, 63, 95); fill-opacity: 1; white-space: pre; opacity: 1;" transform="translate(487.2,0)">300</text></g></g><g class="yaxislayer-above"><g class="ytick"><text text-anchor="end" x="79" y="4.199999999999999" transform="translate(0,382.28)" style="font-family: 'Open Sans', verdana, arial, sans-serif; font-size: 12px; fill: rgb(42, 63, 95); fill-opacity: 1; white-space: pre; opacity: 1;">2</text></g><g class="ytick"><text text-anchor="end" x="79" y="4.199999999999999" style="font-family: 'Open Sans', verdana, arial, sans-serif; font-size: 12px; fill: rgb(42, 63, 95); fill-opacity: 1; white-space: pre; opacity: 1;" transform="translate(0,322.28)">1</text></g><g class="ytick"><text text-anchor="end" x="79" y="4.199999999999999" style="font-family: 'Open Sans', verdana, arial, sans-serif; font-size: 12px; fill: rgb(42, 63, 95); fill-opacity: 1; white-space: pre; opacity: 1;" transform="translate(0,262.27)">0</text></g><g class="ytick"><text text-anchor="end" x="79" y="4.199999999999999" style="font-family: 'Open Sans', verdana, arial, sans-serif; font-size: 12px; fill: rgb(42, 63, 95); fill-opacity: 1; white-space: pre; opacity: 1;" transform="translate(0,202.26999999999998)">1</text></g><g class="ytick"><text text-anchor="end" x="79" y="4.199999999999999" style="font-family: 'Open Sans', verdana, arial, sans-serif; font-size: 12px; fill: rgb(42, 63, 95); fill-opacity: 1; white-space: pre; opacity: 1;" transform="translate(0,142.26)">2</text></g></g><g class="overaxes-above"/></g></g><g class="polarlayer"/><g class="smithlayer"/><g class="ternarylayer"/><g class="geolayer"/><g class="funnelarealayer"/><g class="pielayer"/><g class="iciclelayer"/><g class="treemaplayer"/><g class="sunburstlayer"/><g class="glimages"/><defs id="topdefs-063e80"><g class="clips"/><clipPath id="legend063e80"><rect width="108" height="320" x="0" y="0"/></clipPath></defs><g class="layer-above"><g class="imagelayer"/><g class="shapelayer"/></g><g class="infolayer"><g class="legend" pointer-events="all" transform="translate(579.8,100)"><rect class="bg" shape-rendering="crispEdges" style="stroke: rgb(68, 68, 68); stroke-opacity: 1; fill: rgb(255, 255, 255); fill-opacity: 1; stroke-width: 0px;" width="108" height="320" x="0" y="0"/><g class="scrollbox" transform="" clip-path="url(#legend063e80)"><g class="groups"><g class="traces" transform="translate(0,14.5)" style="opacity: 1;"><text class="legendtext" text-anchor="start" x="40" y="4.680000000000001" style="font-family: 'Open Sans', verdana, arial, sans-serif; font-size: 12px; fill: rgb(42, 63, 95); fill-opacity: 1; white-space: pre;">sensor_1</text><g class="layers" style="opacity: 1;"><g class="legendfill"/><g class="legendlines"><path class="js-line" d="M5,0h30" style="fill: none; stroke: rgb(99, 110, 250); stroke-opacity: 1; stroke-width: 2px;"/></g><g class="legendsymbols"><g class="legendpoints"/></g></g><rect class="legendtoggle" x="0" y="-9.5" width="102.908203125" height="19" style="fill: rgb(0, 0, 0); fill-opacity: 0;"/></g><g class="traces" transform="translate(0,33.5)" style="opacity: 1;"><text class="legendtext" text-anchor="start" x="40" y="4.680000000000001" style="font-family: 'Open Sans', verdana, arial, sans-serif; font-size: 12px; fill: rgb(42, 63, 95); fill-opacity: 1; white-space: pre;">sensor_2</text><g class="layers" style="opacity: 1;"><g class="legendfill"/><g class="legendlines"><path class="js-line" d="M5,0h30" style="fill: none; stroke: rgb(239, 85, 59); stroke-opacity: 1; stroke-width: 2px;"/></g><g class="legendsymbols"><g class="legendpoints"/></g></g><rect class="legendtoggle" x="0" y="-9.5" width="102.908203125" height="19" style="fill: rgb(0, 0, 0); fill-opacity: 0;"/></g><g class="traces" transform="translate(0,52.5)" style="opacity: 1;"><text class="legendtext" text-anchor="start" x="40" y="4.680000000000001" style="font-family: 'Open Sans', verdana, arial, sans-serif; font-size: 12px; fill: rgb(42, 63, 95); fill-opacity: 1; white-space: pre;">sensor_3</text><g class="layers" style="opacity: 1;"><g class="legendfill"/><g class="legendlines"><path class="js-line" d="M5,0h30" style="fill: none; stroke: rgb(0, 204, 150); stroke-opacity: 1; stroke-width: 2px;"/></g><g class="legendsymbols"><g class="legendpoints"/></g></g><rect class="legendtoggle" x="0" y="-9.5" width="102.908203125" height="19" style="fill: rgb(0, 0, 0); fill-opacity: 0;"/></g><g class="traces" transform="translate(0,71.5)" style="opacity: 1;"><text class="legendtext" text-anchor="start" x="40" y="4.680000000000001" style="font-family: 'Open Sans', verdana, arial, sans-serif; font-size: 12px; fill: rgb(42, 63, 95); fill-opacity: 1; white-space: pre;">sensor_4</text><g class="layers" style="opacity: 1;"><g class="legendfill"/><g class="legendlines"><path class="js-line" d="M5,0h30" style="fill: none; stroke: rgb(171, 99, 250); stroke-opacity: 1; stroke-width: 2px;"/></g><g class="legendsymbols"><g class="legendpoints"/></g></g><rect class="legendtoggle" x="0" y="-9.5" width="102.908203125" height="19" style="fill: rgb(0, 0, 0); fill-opacity: 0;"/></g><g class="traces" transform="translate(0,90.5)" style="opacity: 1;"><text class="legendtext" text-anchor="start" x="40" y="4.680000000000001" style="font-family: 'Open Sans', verdana, arial, sans-serif; font-size: 12px; fill: rgb(42, 63, 95); fill-opacity: 1; white-space: pre;">sensor_5</text><g class="layers" style="opacity: 1;"><g class="legendfill"/><g class="legendlines"><path class="js-line" d="M5,0h30" style="fill: none; stroke: rgb(255, 161, 90); stroke-opacity: 1; stroke-width: 2px;"/></g><g class="legendsymbols"><g class="legendpoints"/></g></g><rect class="legendtoggle" x="0" y="-9.5" width="102.908203125" height="19" style="fill: rgb(0, 0, 0); fill-opacity: 0;"/></g><g class="traces" transform="translate(0,109.5)" style="opacity: 1;"><text class="legendtext" text-anchor="start" x="40" y="4.680000000000001" style="font-family: 'Open Sans', verdana, arial, sans-serif; font-size: 12px; fill: rgb(42, 63, 95); fill-opacity: 1; white-space: pre;">sensor_6</text><g class="layers" style="opacity: 1;"><g class="legendfill"/><g class="legendlines"><path class="js-line" d="M5,0h30" style="fill: none; stroke: rgb(25, 211, 243); stroke-opacity: 1; stroke-width: 2px;"/></g><g class="legendsymbols"><g class="legendpoints"/></g></g><rect class="legendtoggle" x="0" y="-9.5" width="102.908203125" height="19" style="fill: rgb(0, 0, 0); fill-opacity: 0;"/></g><g class="traces" transform="translate(0,128.5)" style="opacity: 1;"><text class="legendtext" text-anchor="start" x="40" y="4.680000000000001" style="font-family: 'Open Sans', verdana, arial, sans-serif; font-size: 12px; fill: rgb(42, 63, 95); fill-opacity: 1; white-space: pre;">sensor_7</text><g class="layers" style="opacity: 1;"><g class="legendfill"/><g class="legendlines"><path class="js-line" d="M5,0h30" style="fill: none; stroke: rgb(255, 102, 146); stroke-opacity: 1; stroke-width: 2px;"/></g><g class="legendsymbols"><g class="legendpoints"/></g></g><rect class="legendtoggle" x="0" y="-9.5" width="102.908203125" height="19" style="fill: rgb(0, 0, 0); fill-opacity: 0;"/></g><g class="traces" transform="translate(0,147.5)" style="opacity: 1;"><text class="legendtext" text-anchor="start" x="40" y="4.680000000000001" style="font-family: 'Open Sans', verdana, arial, sans-serif; font-size: 12px; fill: rgb(42, 63, 95); fill-opacity: 1; white-space: pre;">sensor_8</text><g class="layers" style="opacity: 1;"><g class="legendfill"/><g class="legendlines"><path class="js-line" d="M5,0h30" style="fill: none; stroke: rgb(182, 232, 128); stroke-opacity: 1; stroke-width: 2px;"/></g><g class="legendsymbols"><g class="legendpoints"/></g></g><rect class="legendtoggle" x="0" y="-9.5" width="102.908203125" height="19" style="fill: rgb(0, 0, 0); fill-opacity: 0;"/></g><g class="traces" transform="translate(0,166.5)" style="opacity: 1;"><text class="legendtext" text-anchor="start" x="40" y="4.680000000000001" style="font-family: 'Open Sans', verdana, arial, sans-serif; font-size: 12px; fill: rgb(42, 63, 95); fill-opacity: 1; white-space: pre;">sensor_9</text><g class="layers" style="opacity: 1;"><g class="legendfill"/><g class="legendlines"><path class="js-line" d="M5,0h30" style="fill: none; stroke: rgb(255, 151, 255); stroke-opacity: 1; stroke-width: 2px;"/></g><g class="legendsymbols"><g class="legendpoints"/></g></g><rect class="legendtoggle" x="0" y="-9.5" width="102.908203125" height="19" style="fill: rgb(0, 0, 0); fill-opacity: 0;"/></g><g class="traces" transform="translate(0,185.5)" style="opacity: 1;"><text class="legendtext" text-anchor="start" x="40" y="4.680000000000001" style="font-family: 'Open Sans', verdana, arial, sans-serif; font-size: 12px; fill: rgb(42, 63, 95); fill-opacity: 1; white-space: pre;">sensor_10</text><g class="layers" style="opacity: 1;"><g class="legendfill"/><g class="legendlines"><path class="js-line" d="M5,0h30" style="fill: none; stroke: rgb(254, 203, 82); stroke-opacity: 1; stroke-width: 2px;"/></g><g class="legendsymbols"><g class="legendpoints"/></g></g><rect class="legendtoggle" x="0" y="-9.5" width="102.908203125" height="19" style="fill: rgb(0, 0, 0); fill-opacity: 0;"/></g><g class="traces" transform="translate(0,204.5)" style="opacity: 1;"><text class="legendtext" text-anchor="start" x="40" y="4.680000000000001" style="font-family: 'Open Sans', verdana, arial, sans-serif; font-size: 12px; fill: rgb(42, 63, 95); fill-opacity: 1; white-space: pre;">sensor_11</text><g class="layers" style="opacity: 1;"><g class="legendfill"/><g class="legendlines"><path class="js-line" d="M5,0h30" style="fill: none; stroke: rgb(99, 110, 250); stroke-opacity: 1; stroke-width: 2px;"/></g><g class="legendsymbols"><g class="legendpoints"/></g></g><rect class="legendtoggle" x="0" y="-9.5" width="102.908203125" height="19" style="fill: rgb(0, 0, 0); fill-opacity: 0;"/></g><g class="traces" transform="translate(0,223.5)" style="opacity: 1;"><text class="legendtext" text-anchor="start" x="40" y="4.680000000000001" style="font-family: 'Open Sans', verdana, arial, sans-serif; font-size: 12px; fill: rgb(42, 63, 95); fill-opacity: 1; white-space: pre;">sensor_12</text><g class="layers" style="opacity: 1;"><g class="legendfill"/><g class="legendlines"><path class="js-line" d="M5,0h30" style="fill: none; stroke: rgb(239, 85, 59); stroke-opacity: 1; stroke-width: 2px;"/></g><g class="legendsymbols"><g class="legendpoints"/></g></g><rect class="legendtoggle" x="0" y="-9.5" width="102.908203125" height="19" style="fill: rgb(0, 0, 0); fill-opacity: 0;"/></g><g class="traces" transform="translate(0,242.5)" style="opacity: 1;"><text class="legendtext" text-anchor="start" x="40" y="4.680000000000001" style="font-family: 'Open Sans', verdana, arial, sans-serif; font-size: 12px; fill: rgb(42, 63, 95); fill-opacity: 1; white-space: pre;">sensor_13</text><g class="layers" style="opacity: 1;"><g class="legendfill"/><g class="legendlines"><path class="js-line" d="M5,0h30" style="fill: none; stroke: rgb(0, 204, 150); stroke-opacity: 1; stroke-width: 2px;"/></g><g class="legendsymbols"><g class="legendpoints"/></g></g><rect class="legendtoggle" x="0" y="-9.5" width="102.908203125" height="19" style="fill: rgb(0, 0, 0); fill-opacity: 0;"/></g><g class="traces" transform="translate(0,261.5)" style="opacity: 1;"><text class="legendtext" text-anchor="start" x="40" y="4.680000000000001" style="font-family: 'Open Sans', verdana, arial, sans-serif; font-size: 12px; fill: rgb(42, 63, 95); fill-opacity: 1; white-space: pre;">sensor_14</text><g class="layers" style="opacity: 1;"><g class="legendfill"/><g class="legendlines"><path class="js-line" d="M5,0h30" style="fill: none; stroke: rgb(171, 99, 250); stroke-opacity: 1; stroke-width: 2px;"/></g><g class="legendsymbols"><g class="legendpoints"/></g></g><rect class="legendtoggle" x="0" y="-9.5" width="102.908203125" height="19" style="fill: rgb(0, 0, 0); fill-opacity: 0;"/></g><g class="traces" transform="translate(0,280.5)" style="opacity: 1;"><text class="legendtext" text-anchor="start" x="40" y="4.680000000000001" style="font-family: 'Open Sans', verdana, arial, sans-serif; font-size: 12px; fill: rgb(42, 63, 95); fill-opacity: 1; white-space: pre;">sensor_15</text><g class="layers" style="opacity: 1;"><g class="legendfill"/><g class="legendlines"><path class="js-line" d="M5,0h30" style="fill: none; stroke: rgb(255, 161, 90); stroke-opacity: 1; stroke-width: 2px;"/></g><g class="legendsymbols"><g class="legendpoints"/></g></g><rect class="legendtoggle" x="0" y="-9.5" width="102.908203125" height="19" style="fill: rgb(0, 0, 0); fill-opacity: 0;"/></g><g class="traces" transform="translate(0,299.5)" style="opacity: 1;"><text class="legendtext" text-anchor="start" x="40" y="4.680000000000001" style="font-family: 'Open Sans', verdana, arial, sans-serif; font-size: 12px; fill: rgb(42, 63, 95); fill-opacity: 1; white-space: pre;">sensor_16</text><g class="layers" style="opacity: 1;"><g class="legendfill"/><g class="legendlines"><path class="js-line" d="M5,0h30" style="fill: none; stroke: rgb(25, 211, 243); stroke-opacity: 1; stroke-width: 2px;"/></g><g class="legendsymbols"><g class="legendpoints"/></g></g><rect class="legendtoggle" x="0" y="-9.5" width="102.908203125" height="19" style="fill: rgb(0, 0, 0); fill-opacity: 0;"/></g><g class="traces" transform="translate(0,318.5)" style="opacity: 1;"><text class="legendtext" text-anchor="start" x="40" y="4.680000000000001" style="font-family: 'Open Sans', verdana, arial, sans-serif; font-size: 12px; fill: rgb(42, 63, 95); fill-opacity: 1; white-space: pre;">sensor_17</text><g class="layers" style="opacity: 1;"><g class="legendfill"/><g class="legendlines"><path class="js-line" d="M5,0h30" style="fill: none; stroke: rgb(255, 102, 146); stroke-opacity: 1; stroke-width: 2px;"/></g><g class="legendsymbols"><g class="legendpoints"/></g></g><rect class="legendtoggle" x="0" y="-9.5" width="102.908203125" height="19" style="fill: rgb(0, 0, 0); fill-opacity: 0;"/></g><g class="traces" transform="translate(0,337.5)" style="opacity: 1;"><text class="legendtext" text-anchor="start" x="40" y="4.680000000000001" style="font-family: 'Open Sans', verdana, arial, sans-serif; font-size: 12px; fill: rgb(42, 63, 95); fill-opacity: 1; white-space: pre;">sensor_18</text><g class="layers" style="opacity: 1;"><g class="legendfill"/><g class="legendlines"><path class="js-line" d="M5,0h30" style="fill: none; stroke: rgb(182, 232, 128); stroke-opacity: 1; stroke-width: 2px;"/></g><g class="legendsymbols"><g class="legendpoints"/></g></g><rect class="legendtoggle" x="0" y="-9.5" width="102.908203125" height="19" style="fill: rgb(0, 0, 0); fill-opacity: 0;"/></g><g class="traces" transform="translate(0,356.5)" style="opacity: 1;"><text class="legendtext" text-anchor="start" x="40" y="4.680000000000001" style="font-family: 'Open Sans', verdana, arial, sans-serif; font-size: 12px; fill: rgb(42, 63, 95); fill-opacity: 1; white-space: pre;">sensor_19</text><g class="layers" style="opacity: 1;"><g class="legendfill"/><g class="legendlines"><path class="js-line" d="M5,0h30" style="fill: none; stroke: rgb(255, 151, 255); stroke-opacity: 1; stroke-width: 2px;"/></g><g class="legendsymbols"><g class="legendpoints"/></g></g><rect class="legendtoggle" x="0" y="-9.5" width="102.908203125" height="19" style="fill: rgb(0, 0, 0); fill-opacity: 0;"/></g><g class="traces" transform="translate(0,375.5)" style="opacity: 1;"><text class="legendtext" text-anchor="start" x="40" y="4.680000000000001" style="font-family: 'Open Sans', verdana, arial, sans-serif; font-size: 12px; fill: rgb(42, 63, 95); fill-opacity: 1; white-space: pre;">sensor_20</text><g class="layers" style="opacity: 1;"><g class="legendfill"/><g class="legendlines"><path class="js-line" d="M5,0h30" style="fill: none; stroke: rgb(254, 203, 82); stroke-opacity: 1; stroke-width: 2px;"/></g><g class="legendsymbols"><g class="legendpoints"/></g></g><rect class="legendtoggle" x="0" y="-9.5" width="102.908203125" height="19" style="fill: rgb(0, 0, 0); fill-opacity: 0;"/></g><g class="traces" transform="translate(0,394.5)" style="opacity: 1;"><text class="legendtext" text-anchor="start" x="40" y="4.680000000000001" style="font-family: 'Open Sans', verdana, arial, sans-serif; font-size: 12px; fill: rgb(42, 63, 95); fill-opacity: 1; white-space: pre;">sensor_21</text><g class="layers" style="opacity: 1;"><g class="legendfill"/><g class="legendlines"><path class="js-line" d="M5,0h30" style="fill: none; stroke: rgb(99, 110, 250); stroke-opacity: 1; stroke-width: 2px;"/></g><g class="legendsymbols"><g class="legendpoints"/></g></g><rect class="legendtoggle" x="0" y="-9.5" width="102.908203125" height="19" style="fill: rgb(0, 0, 0); fill-opacity: 0;"/></g></g></g><rect class="scrollbar" rx="20" ry="3" width="0" height="0" style="fill: rgb(128, 139, 164); fill-opacity: 1;" x="0" y="0"/></g><g class="g-gtitle"><text class="gtitle" x="35" y="50" text-anchor="start" dy="0em" style="opacity: 1; font-family: 'Open Sans', verdana, arial, sans-serif; font-size: 17px; fill: rgb(42, 63, 95); fill-opacity: 1; white-space: pre;">Average sensor value VS RUL</text></g><g class="g-xtitle"><text class="xtitle" x="325" y="460.3" text-anchor="middle" style="opacity: 1; font-family: 'Open Sans', verdana, arial, sans-serif; font-size: 14px; fill: rgb(42, 63, 95); fill-opacity: 1; white-space: pre;">RUL</text></g><g class="g-ytitle"><text class="ytitle" transform="rotate(-90,42.146875,260)" x="42.146875" y="260" text-anchor="middle" style="opacity: 1; font-family: 'Open Sans', verdana, arial, sans-serif; font-size: 14px; fill: rgb(42, 63, 95); fill-opacity: 1; white-space: pre;">Mean Sensor Value</text></g></g></svg>