<svg class="main-svg" xmlns="http://www.w3.org/2000/svg" xmlns:xlink="http://www.w3.org/1999/xlink" width="700" height="500" style="" viewBox="0 0 700 500"><rect x="0" y="0" width="700" height="500" style="fill: rgb(255, 255, 255); fill-opacity: 1;"/><defs id="defs-906a88"><g class="clips"><clipPath id="clip906a88xyplot" class="plotclip"><rect width="447" height="320"/></clipPath><clipPath class="axesclip" id="clip906a88x"><rect x="80" y="0" width="447" height="500"/></clipPath><clipPath class="axesclip" id="clip906a88y"><rect x="0" y="100" width="700" height="320"/></clipPath><clipPath class="axesclip" id="clip906a88xy"><rect x="80" y="100" width="447" height="320"/></clipPath></g><g class="gradients"/><g class="patterns"/></defs><g class="bglayer"/><g class="layer-below"><g class="imagelayer"/><g class="shapelayer"/></g><g class="cartesianlayer"><g class="subplot xy"><g class="layer-subplot"><g class="shapelayer"/><g class="imagelayer"/></g><g class="minor-gridlayer"><g class="x"/><g class="y"/></g><g class="gridlayer"><g class="x"><path class="xgrid crisp" transform="translate(203.82,0)" d="M0,100v320" style="stroke: rgb(235, 240, 248); stroke-opacity: 1; stroke-width: 1px;"/><path class="xgrid crisp" transform="translate(327.65,0)" d="M0,100v320" style="stroke: rgb(235, 240, 248); stroke-opacity: 1; stroke-width: 1px;"/><path class="xgrid crisp" transform="translate(451.47,0)" d="M0,100v320" style="stroke: rgb(235, 240, 248); stroke-opacity: 1; stroke-width: 1px;"/></g><g class="y"><path class="ygrid crisp" transform="translate(0,365.31)" d="M80,0h447" style="stroke: rgb(235, 240, 248); stroke-opacity: 1; stroke-width: 1px;"/><path class="ygrid crisp" transform="translate(0,324.93)" d="M80,0h447" style="stroke: rgb(235, 240, 248); stroke-opacity: 1; stroke-width: 1px;"/><path class="ygrid crisp" transform="translate(0,284.55)" d="M80,0h447" style="stroke: rgb(235, 240, 248); stroke-opacity: 1; stroke-width: 1px;"/><path class="ygrid crisp" transform="translate(0,244.17)" d="M80,0h447" style="stroke: rgb(235, 240, 248); stroke-opacity: 1; stroke-width: 1px;"/><path class="ygrid crisp" transform="translate(0,203.79000000000002)" d="M80,0h447" style="stroke: rgb(235, 240, 248); stroke-opacity: 1; stroke-width: 1px;"/><path class="ygrid crisp" transform="translate(0,163.41)" d="M80,0h447" style="stroke: rgb(235, 240, 248); stroke-opacity: 1; stroke-width: 1px;"/><path class="ygrid crisp" transform="translate(0,123.03)" d="M80,0h447" style="stroke: rgb(235, 240, 248); stroke-opacity: 1; stroke-width: 1px;"/></g></g><g class="zerolinelayer"><path class="xzl zl crisp" transform="translate(80,0)" d="M0,100v320" style="stroke: rgb(235, 240, 248); stroke-opacity: 1; stroke-width: 2px;"/><path class="yzl zl crisp" transform="translate(0,405.69)" d="M80,0h447" style="stroke: rgb(235, 240, 248); stroke-opacity: 1; stroke-width: 2px;"/></g><g class="layer-between"><g class="shapelayer"/><g class="imagelayer"/></g><path class="xlines-below"/><path class="ylines-below"/><g class="overlines-below"/><g class="xaxislayer-below"/><g class="yaxislayer-below"/><g class="overaxes-below"/><g class="overplot"><g class="xy" transform="translate(80,100)" clip-path="url(#clip906a88xyplot)"><g class="scatterlayer mlayer"><g class="trace scatter trace373b47" style="stroke-miterlimit: 2; opacity: 1;"><g class="fills"/><g class="errorbars"/><g class="lines"><path class="js-line" d="M0,295.96L447,296.13" style="vector-effect: none; fill: none; stroke: rgb(99, 110, 250); stroke-opacity: 1; stroke-width: 2px; opacity: 1;"/></g><g class="points"/><g class="text"/></g><g class="trace scatter trace697015" style="stroke-miterlimit: 2;"><g class="fills"><g><path class="js-fill" d="M0,295.98L421,296.14L421,296.1L0,295.94Z" style="fill: rgb(0, 0, 255); fill-opacity: 0.1; stroke-width: 0;"/></g></g><g class="errorbars"/><g class="lines"><path class="js-line" d="M0,295.94L421,296.1" style="vector-effect: none; fill: none; stroke: rgb(239, 85, 59); stroke-opacity: 1; stroke-width: 0px; opacity: 1;"/></g><g class="points"/><g class="text"/></g><g class="trace scatter trace736905" style="stroke-miterlimit: 2;"><g class="fills"/><g class="errorbars"/><g class="lines"><path class="js-line" d="M0,295.98L421,296.14" style="vector-effect: none; fill: none; stroke: rgb(0, 204, 150); stroke-opacity: 1; stroke-width: 0px; opacity: 1;"/></g><g class="points"/><g class="text"/></g><g class="trace scatter trace7d4774" style="stroke-miterlimit: 2; opacity: 1;"><g class="fills"/><g class="errorbars"/><g class="lines"><path class="js-line" d="M0,16.79L3.71,17.16L4.95,17.47L12.38,18.14L13.62,18.24L53.24,20.2L54.48,20.16L58.2,20.38L59.43,20.27L80.48,21.05L81.72,20.99L146.11,21.94L147.35,21.92L151.06,22.14L152.3,21.93L157.25,22L158.49,22.1L177.07,22.33L178.3,22.13L185.73,22.28L186.97,22.26L196.88,22.37L198.12,22.47L203.07,22.27L204.31,22.36L236.5,22.39L237.74,22.39L242.69,22.64L243.93,22.65L252.6,22.71L253.84,22.77L268.7,22.82L269.93,22.49L272.41,22.76L273.65,22.96L278.6,22.58L279.84,22.67L307.08,22.76L308.32,22.44L316.99,22.86L318.22,22.6L334.32,22.61L335.56,23.23L338.04,22.72L339.27,22.95L340.51,22.52L341.75,22.93L347.94,22.38L349.18,23.19L350.42,22.39L351.66,22.97L354.13,23.21L355.37,23.13L359.09,23.15L360.32,23.58L362.8,22.04L364.04,22.25L366.52,22.93L367.75,22.4L371.47,22.53L372.71,22.79L373.94,22.15L375.18,22.61L380.14,22.43L381.37,23.07L383.85,22.42L385.09,21.87L386.33,22.82L387.57,22.58L392.52,22.21L393.76,22.77L394.99,22.28L396.23,23.02L397.47,22.36L398.71,23.76L399.95,21.97L401.19,23.41L403.66,21.96L404.9,22.34L408.61,23.03L409.85,22.2L411.09,23.2L412.33,23.14L413.57,23.25L414.81,22.15L418.52,21.68L419.76,23.69L421,21.97L422.24,22.86L427.19,22.52L428.43,21.69L433.38,23.1L434.62,21.73L435.86,21.88L437.09,23.2L438.33,22.54L439.57,23.22L440.81,23.2L442.05,22.41L443.29,21.32L444.52,21.97L447,22.9" style="vector-effect: none; fill: none; stroke: rgb(171, 99, 250); stroke-opacity: 1; stroke-width: 2px; opacity: 1;"/></g><g class="points"/><g class="text"/></g><g class="trace scatter traced34fff" style="stroke-miterlimit: 2;"><g class="fills"><g><path class="js-fill" d="M0,17.59L4.95,18.38L6.19,18.31L12.38,18.97L13.62,19.15L21.05,19.61L22.29,19.96L26,19.93L27.24,19.93L30.96,20.33L32.19,20.24L76.77,22.3L78.01,22.03L86.68,22.55L87.91,22.3L101.53,22.74L102.77,22.37L108.96,22.82L110.2,22.69L113.92,22.79L115.16,22.69L126.3,22.8L127.54,22.88L144.87,23.18L146.11,23.1L162.21,23.29L163.45,23.45L172.11,23.23L173.35,23.48L178.3,23.38L179.54,23.38L186.97,23.45L188.21,23.47L221.64,23.64L222.88,23.32L227.83,23.64L229.07,23.52L235.26,23.64L236.5,23.53L240.22,23.65L241.45,23.9L263.74,23.62L264.98,24.11L268.7,23.64L269.93,23.65L271.17,24.15L272.41,23.78L276.12,24.12L277.36,23.6L288.51,24.16L289.75,23.7L292.22,23.67L293.46,23.98L295.94,23.71L297.17,24.04L298.41,24.29L299.65,23.74L304.6,23.99L305.84,23.6L308.32,24.03L309.56,23.49L313.27,24.09L314.51,23.69L316.99,24.32L318.22,23.84L321.94,24.04L323.18,24.03L325.65,24.03L326.89,24.71L328.13,23.77L329.37,24.2L334.32,23.93L335.56,24.13L347.94,23.64L349.18,24.6L350.42,23.63L351.66,24.01L354.13,24.15L355.37,24.25L357.85,23.66L359.09,24.24L361.56,23.95L362.8,23.14L364.04,22.48L365.28,23.51L366.52,23.89L367.75,22.65L370.23,23.27L371.47,22.89L372.71,23.79L373.94,22.63L375.18,23.38L376.42,22.96L378.9,22.88L380.14,22.71L381.37,23.92L382.61,23.43L385.09,22.99L386.33,23.97L387.57,23.46L388.8,23.9L392.52,23.05L393.76,23.47L394.99,23.01L396.23,24.09L397.47,23.05L398.71,23.99L399.95,22.4L401.19,24.37L403.66,22.86L404.9,23.05L406.14,22.64L407.38,24.03L408.61,23.68L409.85,22.47L411.09,24.13L412.33,24L416.04,22.91L417.28,22.56L418.52,22.16L419.76,24.2L421,22.92L421,21.02L419.76,23.18L418.52,21.2L417.28,21.67L414.81,20.85L413.57,22.65L412.33,22.28L411.09,22.27L408.61,22.37L407.38,22.45L404.9,21.63L403.66,21.06L401.19,22.44L399.95,21.54L398.71,23.52L397.47,21.67L394.99,21.55L393.76,22.07L388.8,20.8L387.57,21.71L386.33,21.67L385.09,20.76L383.85,21.73L382.61,22.62L375.18,21.84L373.94,21.67L371.47,22.16L370.23,21.07L368.99,21.51L367.75,22.15L364.04,22.03L362.8,20.94L360.32,22.89L359.09,22.07L357.85,22.41L356.61,22.42L354.13,22.28L352.89,22.26L350.42,21.14L349.18,21.77L347.94,21.12L346.7,22.66L345.47,22.39L344.23,21.31L341.75,22.26L340.51,21.35L339.27,22.28L338.04,21.37L335.56,22.33L334.32,21.28L333.08,21.84L331.84,21.55L319.46,21.45L318.22,21.35L315.75,21.89L314.51,21.23L313.27,21.9L312.03,21.34L309.56,21.62L308.32,20.86L303.37,21.81L302.13,21.33L298.41,21.48L297.17,21.74L289.75,21.1L288.51,21.55L274.89,21.29L273.65,21.81L269.93,21.34L268.7,22L264.98,21.49L263.74,21.44L241.45,21.46L240.22,21.15L235.26,21.43L234.02,21.14L230.31,21.26L229.07,21.18L226.6,21.22L225.36,21.25L220.4,20.95L219.17,21.3L211.74,20.93L210.5,21.04L196.88,21.21L195.64,21.18L191.93,21.29L190.69,21.16L179.54,21.17L178.3,20.89L173.35,21.01L172.11,21.07L152.3,20.84L151.06,20.88L148.59,21.09L147.35,20.78L137.44,20.64L136.2,20.5L118.87,20.56L117.63,20.5L111.44,20.42L110.2,20.49L102.77,20.08L101.53,20.32L94.11,19.99L92.87,20.13L69.34,19.53L68.1,19.68L59.43,19.17L58.2,19.27L55.72,19.39L54.48,19.12L43.34,18.72L42.1,18.75L39.62,18.9L38.39,18.64L35.91,18.48L34.67,18.4L29.72,18.1L28.48,18.22L21.05,17.63L19.81,17.81L16.1,17.31L14.86,17.5L3.71,16.37L2.48,16.61L0,16Z" style="fill: rgb(0, 0, 255); fill-opacity: 0.1; stroke-width: 0;"/></g></g><g class="errorbars"/><g class="lines"><path class="js-line" d="M0,16L2.48,16.61L3.71,16.37L14.86,17.5L16.1,17.31L19.81,17.81L21.05,17.63L28.48,18.22L29.72,18.1L34.67,18.4L35.91,18.48L38.39,18.64L39.62,18.9L42.1,18.75L43.34,18.72L54.48,19.12L55.72,19.39L58.2,19.27L59.43,19.17L68.1,19.68L69.34,19.53L92.87,20.13L94.11,19.99L101.53,20.32L102.77,20.08L110.2,20.49L111.44,20.42L117.63,20.5L118.87,20.56L136.2,20.5L137.44,20.64L147.35,20.78L148.59,21.09L151.06,20.88L152.3,20.84L172.11,21.07L173.35,21.01L178.3,20.89L179.54,21.17L190.69,21.16L191.93,21.29L195.64,21.18L196.88,21.21L210.5,21.04L211.74,20.93L219.17,21.3L220.4,20.95L225.36,21.25L226.6,21.22L229.07,21.18L230.31,21.26L234.02,21.14L235.26,21.43L240.22,21.15L241.45,21.46L263.74,21.44L264.98,21.49L268.7,22L269.93,21.34L273.65,21.81L274.89,21.29L288.51,21.55L289.75,21.1L297.17,21.74L298.41,21.48L302.13,21.33L303.37,21.81L308.32,20.86L309.56,21.62L312.03,21.34L313.27,21.9L314.51,21.23L315.75,21.89L318.22,21.35L319.46,21.45L331.84,21.55L333.08,21.84L334.32,21.28L335.56,22.33L338.04,21.37L339.27,22.28L340.51,21.35L341.75,22.26L344.23,21.31L345.47,22.39L346.7,22.66L347.94,21.12L349.18,21.77L350.42,21.14L352.89,22.26L354.13,22.28L356.61,22.42L357.85,22.41L359.09,22.07L360.32,22.89L362.8,20.94L364.04,22.03L367.75,22.15L368.99,21.51L370.23,21.07L371.47,22.16L373.94,21.67L375.18,21.84L382.61,22.62L383.85,21.73L385.09,20.76L386.33,21.67L387.57,21.71L388.8,20.8L393.76,22.07L394.99,21.55L397.47,21.67L398.71,23.52L399.95,21.54L401.19,22.44L403.66,21.06L404.9,21.63L407.38,22.45L408.61,22.37L411.09,22.27L412.33,22.28L413.57,22.65L414.81,20.85L417.28,21.67L418.52,21.2L419.76,23.18L421,21.02" style="vector-effect: none; fill: none; stroke: rgb(255, 161, 90); stroke-opacity: 1; stroke-width: 0px; opacity: 1;"/></g><g class="points"/><g class="text"/></g><g class="trace scatter trace76d739" style="stroke-miterlimit: 2;"><g class="fills"/><g class="errorbars"/><g class="lines"><path class="js-line" d="M0,17.59L4.95,18.38L6.19,18.31L12.38,18.97L13.62,19.15L21.05,19.61L22.29,19.96L26,19.93L27.24,19.93L30.96,20.33L32.19,20.24L76.77,22.3L78.01,22.03L86.68,22.55L87.91,22.3L101.53,22.74L102.77,22.37L108.96,22.82L110.2,22.69L113.92,22.79L115.16,22.69L126.3,22.8L127.54,22.88L144.87,23.18L146.11,23.1L162.21,23.29L163.45,23.45L172.11,23.23L173.35,23.48L178.3,23.38L179.54,23.38L186.97,23.45L188.21,23.47L221.64,23.64L222.88,23.32L227.83,23.64L229.07,23.52L235.26,23.64L236.5,23.53L240.22,23.65L241.45,23.9L263.74,23.62L264.98,24.11L268.7,23.64L269.93,23.65L271.17,24.15L272.41,23.78L276.12,24.12L277.36,23.6L288.51,24.16L289.75,23.7L292.22,23.67L293.46,23.98L295.94,23.71L297.17,24.04L298.41,24.29L299.65,23.74L304.6,23.99L305.84,23.6L308.32,24.03L309.56,23.49L313.27,24.09L314.51,23.69L316.99,24.32L318.22,23.84L321.94,24.04L323.18,24.03L325.65,24.03L326.89,24.71L328.13,23.77L329.37,24.2L334.32,23.93L335.56,24.13L347.94,23.64L349.18,24.6L350.42,23.63L351.66,24.01L354.13,24.15L355.37,24.25L357.85,23.66L359.09,24.24L361.56,23.95L362.8,23.14L364.04,22.48L365.28,23.51L366.52,23.89L367.75,22.65L370.23,23.27L371.47,22.89L372.71,23.79L373.94,22.63L375.18,23.38L376.42,22.96L378.9,22.88L380.14,22.71L381.37,23.92L382.61,23.43L385.09,22.99L386.33,23.97L387.57,23.46L388.8,23.9L392.52,23.05L393.76,23.47L394.99,23.01L396.23,24.09L397.47,23.05L398.71,23.99L399.95,22.4L401.19,24.37L403.66,22.86L404.9,23.05L406.14,22.64L407.38,24.03L408.61,23.68L409.85,22.47L411.09,24.13L412.33,24L416.04,22.91L417.28,22.56L418.52,22.16L419.76,24.2L421,22.92" style="vector-effect: none; fill: none; stroke: rgb(25, 211, 243); stroke-opacity: 1; stroke-width: 0px; opacity: 1;"/></g><g class="points"/><g class="text"/></g><g class="trace scatter trace06c891" style="stroke-miterlimit: 2; opacity: 1;"><g class="fills"/><g class="errorbars"/><g class="lines"><path class="js-line" d="M0,303.97L447,303.99" style="vector-effect: none; fill: none; stroke: rgb(255, 102, 146); stroke-opacity: 1; stroke-width: 2px; opacity: 1;"/></g><g class="points"/><g class="text"/></g><g class="trace scatter trace92cbf9" style="stroke-miterlimit: 2;"><g class="fills"><g><path class="js-fill" d="M0,303.97L421,303.99L421,303.99L0,303.96Z" style="fill: rgb(0, 0, 255); fill-opacity: 0.1; stroke-width: 0;"/></g></g><g class="errorbars"/><g class="lines"><path class="js-line" d="M0,303.96L421,303.99" style="vector-effect: none; fill: none; stroke: rgb(182, 232, 128); stroke-opacity: 1; stroke-width: 0px; opacity: 1;"/></g><g class="points"/><g class="text"/></g><g class="trace scatter tracea8081a" style="stroke-miterlimit: 2;"><g class="fills"/><g class="errorbars"/><g class="lines"><path class="js-line" d="M0,303.97L421,303.99" style="vector-effect: none; fill: none; stroke: rgb(255, 151, 255); stroke-opacity: 1; stroke-width: 0px; opacity: 1;"/></g><g class="points"/><g class="text"/></g></g></g></g><path class="xlines-above crisp" d="M0,0" style="fill: none;"/><path class="ylines-above crisp" d="M0,0" style="fill: none;"/><g class="overlines-above"/><g class="xaxislayer-above"><g class="xtick"><text text-anchor="middle" x="0" y="433" transform="translate(80,0)" style="font-family: 'Open Sans', verdana, arial, sans-serif; font-size: 12px; fill: rgb(42, 63, 95); fill-opacity: 1; white-space: pre; opacity: 1;">0</text></g><g class="xtick"><text text-anchor="middle" x="0" y="433" style="font-family: 'Open Sans', verdana, arial, sans-serif; font-size: 12px; fill: rgb(42, 63, 95); fill-opacity: 1; white-space: pre; opacity: 1;" transform="translate(203.82,0)">100</text></g><g class="xtick"><text text-anchor="middle" x="0" y="433" style="font-family: 'Open Sans', verdana, arial, sans-serif; font-size: 12px; fill: rgb(42, 63, 95); fill-opacity: 1; white-space: pre; opacity: 1;" transform="translate(327.65,0)">200</text></g><g class="xtick"><text text-anchor="middle" x="0" y="433" style="font-family: 'Open Sans', verdana, arial, sans-serif; font-size: 12px; fill: rgb(42, 63, 95); fill-opacity: 1; white-space: pre; opacity: 1;" transform="translate(451.47,0)">300</text></g></g><g class="yaxislayer-above"><g class="ytick"><text text-anchor="end" x="79" y="4.199999999999999" transform="translate(0,405.69)" style="font-family: 'Open Sans', verdana, arial, sans-serif; font-size: 12px; fill: rgb(42, 63, 95); fill-opacity: 1; white-space: pre; opacity: 1;">0</text></g><g class="ytick"><text text-anchor="end" x="79" y="4.199999999999999" style="font-family: 'Open Sans', verdana, arial, sans-serif; font-size: 12px; fill: rgb(42, 63, 95); fill-opacity: 1; white-space: pre; opacity: 1;" transform="translate(0,365.31)">200</text></g><g class="ytick"><text text-anchor="end" x="79" y="4.199999999999999" style="font-family: 'Open Sans', verdana, arial, sans-serif; font-size: 12px; fill: rgb(42, 63, 95); fill-opacity: 1; white-space: pre; opacity: 1;" transform="translate(0,324.93)">400</text></g><g class="ytick"><text text-anchor="end" x="79" y="4.199999999999999" style="font-family: 'Open Sans', verdana, arial, sans-serif; font-size: 12px; fill: rgb(42, 63, 95); fill-opacity: 1; white-space: pre; opacity: 1;" transform="translate(0,284.55)">600</text></g><g class="ytick"><text text-anchor="end" x="79" y="4.199999999999999" style="font-family: 'Open Sans', verdana, arial, sans-serif; font-size: 12px; fill: rgb(42, 63, 95); fill-opacity: 1; white-space: pre; opacity: 1;" transform="translate(0,244.17)">800</text></g><g class="ytick"><text text-anchor="end" x="79" y="4.199999999999999" style="font-family: 'Open Sans', verdana, arial, sans-serif; font-size: 12px; fill: rgb(42, 63, 95); fill-opacity: 1; white-space: pre; opacity: 1;" transform="translate(0,203.79000000000002)">1000</text></g><g class="ytick"><text text-anchor="end" x="79" y="4.199999999999999" style="font-family: 'Open Sans', verdana, arial, sans-serif; font-size: 12px; fill: rgb(42, 63, 95); fill-opacity: 1; white-space: pre; opacity: 1;" transform="translate(0,163.41)">1200</text></g><g class="ytick"><text text-anchor="end" x="79" y="4.199999999999999" style="font-family: 'Open Sans', verdana, arial, sans-serif; font-size: 12px; fill: rgb(42, 63, 95); fill-opacity: 1; white-space: pre; opacity: 1;" transform="translate(0,123.03)">1400</text></g></g><g class="overaxes-above"/></g></g><g class="polarlayer"/><g class="smithlayer"/><g class="ternarylayer"/><g class="geolayer"/><g class="funnelarealayer"/><g class="pielayer"/><g class="iciclelayer"/><g class="treemaplayer"/><g class="sunburstlayer"/><g class="glimages"/><defs id="topdefs-906a88"><g class="clips"/><clipPath id="legend906a88"><rect width="152" height="124" x="0" y="0"/></clipPath></defs><g class="layer-above"><g class="imagelayer"/><g class="shapelayer"/></g><g class="infolayer"><g class="legend" pointer-events="all" transform="translate(535.94,100)"><rect class="bg" shape-rendering="crispEdges" style="stroke: rgb(68, 68, 68); stroke-opacity: 1; fill: rgb(255, 255, 255); fill-opacity: 1; stroke-width: 0px;" width="152" height="124" x="0" y="0"/><g class="scrollbox" transform="" clip-path="url(#legend906a88)"><g class="groups"><g class="traces" transform="translate(0,14.5)" style="opacity: 1;"><text class="legendtext" text-anchor="start" x="40" y="4.680000000000001" style="font-family: 'Open Sans', verdana, arial, sans-serif; font-size: 12px; fill: rgb(42, 63, 95); fill-opacity: 1; white-space: pre;">sensor_15 ±1 std</text><g class="layers"><g class="legendfill"><path class="js-fill" d="M5,-2h30v6h-30z" style="stroke-width: 0; fill: rgb(0, 0, 255); fill-opacity: 0.1;"/></g><g class="legendlines"><path class="js-line" d="M5,-2h30" style="fill: none; stroke: rgb(255, 151, 255); stroke-opacity: 1; stroke-width: 0px;"/></g><g class="legendsymbols"><g class="legendpoints"/></g></g><rect class="legendtoggle" x="0" y="-9.5" width="146.890625" height="19" style="fill: rgb(0, 0, 0); fill-opacity: 0;"/></g><g class="traces" transform="translate(0,33.5)" style="opacity: 1;"><text class="legendtext" text-anchor="start" x="40" y="4.680000000000001" style="font-family: 'Open Sans', verdana, arial, sans-serif; font-size: 12px; fill: rgb(42, 63, 95); fill-opacity: 1; white-space: pre;">Mean sensor_15</text><g class="layers" style="opacity: 1;"><g class="legendfill"/><g class="legendlines"><path class="js-line" d="M5,0h30" style="fill: none; stroke: rgb(255, 102, 146); stroke-opacity: 1; stroke-width: 2px;"/></g><g class="legendsymbols"><g class="legendpoints"/></g></g><rect class="legendtoggle" x="0" y="-9.5" width="146.890625" height="19" style="fill: rgb(0, 0, 0); fill-opacity: 0;"/></g><g class="traces" transform="translate(0,52.5)" style="opacity: 1;"><text class="legendtext" text-anchor="start" x="40" y="4.680000000000001" style="font-family: 'Open Sans', verdana, arial, sans-serif; font-size: 12px; fill: rgb(42, 63, 95); fill-opacity: 1; white-space: pre;">sensor_4 ±1 std</text><g class="layers"><g class="legendfill"><path class="js-fill" d="M5,-2h30v6h-30z" style="stroke-width: 0; fill: rgb(0, 0, 255); fill-opacity: 0.1;"/></g><g class="legendlines"><path class="js-line" d="M5,-2h30" style="fill: none; stroke: rgb(25, 211, 243); stroke-opacity: 1; stroke-width: 0px;"/></g><g class="legendsymbols"><g class="legendpoints"/></g></g><rect class="legendtoggle" x="0" y="-9.5" width="146.890625" height="19" style="fill: rgb(0, 0, 0); fill-opacity: 0;"/></g><g class="traces" transform="translate(0,71.5)" style="opacity: 1;"><text class="legendtext" text-anchor="start" x="40" y="4.680000000000001" style="font-family: 'Open Sans', verdana, arial, sans-serif; font-size: 12px; fill: rgb(42, 63, 95); fill-opacity: 1; white-space: pre;">Mean sensor_4</text><g class="layers" style="opacity: 1;"><g class="legendfill"/><g class="legendlines"><path class="js-line" d="M5,0h30" style="fill: none; stroke: rgb(171, 99, 250); stroke-opacity: 1; stroke-width: 2px;"/></g><g class="legendsymbols"><g class="legendpoints"/></g></g><rect class="legendtoggle" x="0" y="-9.5" width="146.890625" height="19" style="fill: rgb(0, 0, 0); fill-opacity: 0;"/></g><g class="traces" transform="translate(0,90.5)" style="opacity: 1;"><text class="legendtext" text-anchor="start" x="40" y="4.680000000000001" style="font-family: 'Open Sans', verdana, arial, sans-serif; font-size: 12px; fill: rgb(42, 63, 95); fill-opacity: 1; white-space: pre;">sensor_11 ±1 std</text><g class="layers"><g class="legendfill"><path class="js-fill" d="M5,-2h30v6h-30z" style="stroke-width: 0; fill: rgb(0, 0, 255); fill-opacity: 0.1;"/></g><g class="legendlines"><path class="js-line" d="M5,-2h30" style="fill: none; stroke: rgb(0, 204, 150); stroke-opacity: 1; stroke-width: 0px;"/></g><g class="legendsymbols"><g class="legendpoints"/></g></g><rect class="legendtoggle" x="0" y="-9.5" width="146.890625" height="19" style="fill: rgb(0, 0, 0); fill-opacity: 0;"/></g><g class="traces" transform="translate(0,109.5)" style="opacity: 1;"><text class="legendtext" text-anchor="start" x="40" y="4.680000000000001" style="font-family: 'Open Sans', verdana, arial, sans-serif; font-size: 12px; fill: rgb(42, 63, 95); fill-opacity: 1; white-space: pre;">Mean sensor_11</text><g class="layers" style="opacity: 1;"><g class="legendfill"/><g class="legendlines"><path class="js-line" d="M5,0h30" style="fill: none; stroke: rgb(99, 110, 250); stroke-opacity: 1; stroke-width: 2px;"/></g><g class="legendsymbols"><g class="legendpoints"/></g></g><rect class="legendtoggle" x="0" y="-9.5" width="146.890625" height="19" style="fill: rgb(0, 0, 0); fill-opacity: 0;"/></g></g></g><rect class="scrollbar" rx="20" ry="3" width="0" height="0" style="fill: rgb(128, 139, 164); fill-opacity: 1;" x="0" y="0"/></g><g class="g-gtitle"><text class="gtitle" x="35" y="50" text-anchor="start" dy="0em" style="opacity: 1; font-family: 'Open Sans', verdana, arial, sans-serif; font-size: 17px; fill: rgb(42, 63, 95); fill-opacity: 1; white-space: pre;">Sensor trends across all engines (aligned by RUL)</text></g><g class="g-xtitle"><text class="xtitle" x="303.5" y="460.3" text-anchor="middle" style="opacity: 1; font-family: 'Open Sans', verdana, arial, sans-serif; font-size: 14px; fill: rgb(42, 63, 95); fill-opacity: 1; white-space: pre;">Remaining Useful Life (RUL)</text></g><g class="g-ytitle"><text class="ytitle" transform="rotate(-90,29.084375,260)" x="29.084375" y="260" text-anchor="middle" style="opacity: 1; font-family: 'Open Sans', verdana, arial, sans-serif; font-size: 14px; fill: rgb(42, 63, 95); fill-opacity: 1; white-space: pre;">Sensor value</text></g></g></svg>